<mxfile host="app.diagrams.net" agent="Mozilla/5.0 (Windows NT 10.0; Win64; x64) AppleWebKit/537.36 (KHTML, like Gecko) Chrome/141.0.0.0 Safari/537.36 Edg/141.0.0.0" version="28.2.7">
  <diagram name="Page-1" id="L3_l_R4apwvJHrHcvXET">
    <mxGraphModel dx="3411" dy="1684" grid="0" gridSize="10" guides="1" tooltips="1" connect="1" arrows="1" fold="1" page="0" pageScale="1" pageWidth="850" pageHeight="1100" math="0" shadow="0">
      <root>
        <mxCell id="0" />
        <mxCell id="1" parent="0" />
        <UserObject label="" plantUmlData="{&#xa;  &quot;data&quot;: &quot;@startuml\n&#39; Sơ đồ Tuần tự Hoàn Chỉnh - Usecase \&quot;Đặt Sân\&quot;\n&#39; Phiên bản ĐÃ SỬA LỖI, có cấu trúc và chú thích chi tiết\n\ntitle Sơ đồ Tuần tự - Usecase \&quot;Đặt Sân\&quot;\n\n&#39; --- Cấu hình &amp; Định nghĩa các Thành phần ---\nautonumber \&quot;&lt;b&gt;[0]\&quot;\n\nactor \&quot;:Thành viên\&quot; as Member\nparticipant \&quot;:BookingController\&quot; as BController\nparticipant \&quot;:BookingService\&quot; as BService\nparticipant \&quot;:FieldService\&quot; as FService\nparticipant \&quot;:PaymentService\&quot; as PService\nparticipant \&quot;:NotificationService\&quot; as NotiService\nparticipant \&quot;:Database\&quot; as DB\nactor \&quot;:Hệ thống thanh toán\&quot; as PaymentGateway\n\nskinparam sequenceActorBorderColor #5E81AC\nskinparam sequenceParticipantBorderColor #5E81AC\nskinparam sequenceLifeLineBorderColor #BF616A\n\n\n&#39; --- Bắt đầu luồng nghiệp vụ ---\n\ngroup Luồng Khách hàng Khởi tạo Đặt sân\n\n    Member -&gt; BController: Yêu cầu đặt sân (POST /bookings)\n    activate BController\n\n    BController -&gt; BService: createBooking(bookingDto)\n    activate BService\n    note right of BService: Bắt đầu xử lý logic nghiệp vụ\n\n    BService -&gt; FService: checkAvailability(fieldId, time)\n    activate FService\n    FService --&gt; BService: (true) Sân còn trống\n    deactivate FService\n\n    BService -&gt; DB: Tạo Booking (status=\&quot;PENDING\&quot;)\n    activate DB\n    DB --&gt; BService: bookingEntity (đã lưu)\n    deactivate DB\n\n    BService -&gt; PService: initiatePayment(bookingEntity)\n    activate PService\n\n    PService -&gt; PaymentGateway: Yêu cầu tạo giao dịch thanh toán\n    activate PaymentGateway\n    PaymentGateway --&gt; PService: paymentUrl\n    deactivate PaymentGateway\n\n    PService --&gt; BService: paymentUrl\n    deactivate PService\n\n    BService --&gt; BController: { bookingId, paymentUrl }\n    deactivate BService\n\n    BController --&gt; Member: 201 Created (Chuyển hướng đến trang thanh toán)\n    deactivate BController\nend\n\n... Vài phút sau: Người dùng thanh toán thành công trên trang của cổng thanh toán ...\n\ngroup Luồng Hệ thống Xác nhận Thanh toán (Webhook/Callback)\n\n    PaymentGateway -&gt; PController: Gửi thông báo thanh toán thành công (POST /payments/webhook)\n    activate PController\n\n    PController -&gt; PService: handleSuccessfulPayment(paymentData)\n    activate PService\n\n    PService -&gt; DB: Cập nhật Payment (status=\&quot;SUCCESS\&quot;)\n    activate DB\n    DB --&gt; PService: paymentEntity (đã cập nhật)\n    deactivate DB\n\n    PService -&gt; BService: confirmBooking(bookingId)\n    activate BService\n\n    BService -&gt; DB: Tìm Booking theo bookingId\n    activate DB\n    DB --&gt; BService: bookingToConfirm\n    deactivate DB\n\n    &#39; --- SỬA LỖI Ở ĐÂY ---\n    &#39; Hành động gọi phương thức của Rich Domain Object là một xử lý nội bộ của Service\n    BService -&gt; BService: bookingToConfirm.confirm()\n    note right of BService: Gọi phương thức của Rich Domain Object\\nđể đóng gói và thực thi logic nghiệp vụ\n\n    BService -&gt; DB: Cập nhật Booking (status=\&quot;CONFIRMED\&quot;)\n\n    BService -&gt; NotiService: sendBookingConfirmation(bookingToConfirm)\n    activate NotiService\n    note right of NotiService: Gửi email/SMS xác nhận cho khách hàng\n    NotiService --&gt; BService\n    deactivate NotiService\n\n    deactivate BService\n    PService --&gt; PController\n    deactivate PService\n\n    PController --&gt; PaymentGateway: 200 OK (Phản hồi đã nhận webhook)\n    deactivate PController\nend\n\n@enduml&quot;,&#xa;  &quot;format&quot;: &quot;svg&quot;&#xa;}" id="ozQ3OdH8jYFzhzLEwOhK-5">
          <mxCell style="shape=image;noLabel=1;verticalAlign=top;aspect=fixed;imageAspect=0;image=data:image/svg+xml,PHN2ZyB4bWxucz0iaHR0cDovL3d3dy53My5vcmcvMjAwMC9zdmciIHhtbG5zOnhsaW5rPSJodHRwOi8vd3d3LnczLm9yZy8xOTk5L3hsaW5rIiBjb250ZW50U3R5bGVUeXBlPSJ0ZXh0L2NzcyIgZGF0YS1kaWFncmFtLXR5cGU9IlNFUVVFTkNFIiBoZWlnaHQ9IjExNDFweCIgcHJlc2VydmVBc3BlY3RSYXRpbz0ibm9uZSIgc3R5bGU9IndpZHRoOjE5NDhweDtoZWlnaHQ6MTE0MXB4O2JhY2tncm91bmQ6I0ZGRkZGRjsiIHZlcnNpb249IjEuMSIgdmlld0JveD0iMCAwIDE5NDggMTE0MSIgd2lkdGg9IjE5NDhweCIgem9vbUFuZFBhbj0ibWFnbmlmeSI+PHRpdGxlPlMmIzQxNzsgJiMyNzM7JiM3ODkxOyBUdSYjNzg0NztuIHQmIzc5MjE7IC0gVXNlY2FzZSAiJiMyNzI7JiM3ODYzO3QgUyYjMjI2O24iPC90aXRsZT48ZGVmcy8+PGc+PHRleHQgZmlsbD0iIzAwMDAwMCIgZm9udC1mYW1pbHk9InNhbnMtc2VyaWYiIGZvbnQtc2l6ZT0iMTQiIGZvbnQtd2VpZ2h0PSJib2xkIiBsZW5ndGhBZGp1c3Q9InNwYWNpbmciIHRleHRMZW5ndGg9IjIzMSIgeD0iODYwLjI1IiB5PSIyOC4yMzQ0Ij5TJiM0MTc7ICYjMjczOyYjNzg5MTsgVHUmIzc4NDc7biB0JiM3OTIxOyAtIFVzZWNhc2UgIiYjMjcyOyYjNzg2Mzt0IFMmIzIyNjtuIjwvdGV4dD48Zz48dGl0bGU+OkJvb2tpbmdDb250cm9sbGVyPC90aXRsZT48cmVjdCBmaWxsPSIjRkZGRkZGIiBoZWlnaHQ9IjM0MC45Njg4IiBzdHlsZT0ic3Ryb2tlOiNCRjYxNkE7c3Ryb2tlLXdpZHRoOjE7IiB3aWR0aD0iMTAiIHg9IjQyMSIgeT0iMTY4Ljc5NjkiLz48L2c+PGc+PHRpdGxlPjpCb29raW5nU2VydmljZTwvdGl0bGU+PHJlY3QgZmlsbD0iI0ZGRkZGRiIgaGVpZ2h0PSIyODUuMTQwNiIgc3R5bGU9InN0cm9rZTojQkY2MTZBO3N0cm9rZS13aWR0aDoxOyIgd2lkdGg9IjEwIiB4PSI2NDcuNSIgeT0iMTk2LjcxMDkiLz48L2c+PGc+PHRpdGxlPjpCb29raW5nU2VydmljZTwvdGl0bGU+PHJlY3QgZmlsbD0iI0ZGRkZGRiIgaGVpZ2h0PSIyNjIuMjI2NiIgc3R5bGU9InN0cm9rZTojQkY2MTZBO3N0cm9rZS13aWR0aDoxOyIgd2lkdGg9IjEwIiB4PSI2NDcuNSIgeT0iNzE5LjAyMzQiLz48L2c+PGc+PHRpdGxlPjpGaWVsZFNlcnZpY2U8L3RpdGxlPjxyZWN0IGZpbGw9IiNGRkZGRkYiIGhlaWdodD0iMjcuOTE0MSIgc3R5bGU9InN0cm9rZTojQkY2MTZBO3N0cm9rZS13aWR0aDoxOyIgd2lkdGg9IjEwIiB4PSI5MDgiIHk9IjI1OC41MzkxIi8+PC9nPjxnPjx0aXRsZT46UGF5bWVudFNlcnZpY2U8L3RpdGxlPjxyZWN0IGZpbGw9IiNGRkZGRkYiIGhlaWdodD0iODMuNzQyMiIgc3R5bGU9InN0cm9rZTojQkY2MTZBO3N0cm9rZS13aWR0aDoxOyIgd2lkdGg9IjEwIiB4PSIxMDMwIiB5PSIzNzAuMTk1MyIvPjwvZz48Zz48dGl0bGU+OlBheW1lbnRTZXJ2aWNlPC90aXRsZT48cmVjdCBmaWxsPSIjRkZGRkZGIiBoZWlnaHQ9IjM3My44ODI4IiBzdHlsZT0ic3Ryb2tlOiNCRjYxNkE7c3Ryb2tlLXdpZHRoOjE7IiB3aWR0aD0iMTAiIHg9IjEwMzAiIHk9IjYzNS4yODEzIi8+PC9nPjxnPjx0aXRsZT46Tm90aWZpY2F0aW9uU2VydmljZTwvdGl0bGU+PHJlY3QgZmlsbD0iI0ZGRkZGRiIgaGVpZ2h0PSI2MS44MjgxIiBzdHlsZT0ic3Ryb2tlOiNCRjYxNkE7c3Ryb2tlLXdpZHRoOjE7IiB3aWR0aD0iMTAiIHg9IjExNzYuNSIgeT0iOTE5LjQyMTkiLz48L2c+PGc+PHRpdGxlPjpEYXRhYmFzZTwvdGl0bGU+PHJlY3QgZmlsbD0iI0ZGRkZGRiIgaGVpZ2h0PSIyNy45MTQxIiBzdHlsZT0ic3Ryb2tlOiNCRjYxNkE7c3Ryb2tlLXdpZHRoOjE7IiB3aWR0aD0iMTAiIHg9IjEzMTYuNSIgeT0iMzE0LjM2NzIiLz48L2c+PGc+PHRpdGxlPjpEYXRhYmFzZTwvdGl0bGU+PHJlY3QgZmlsbD0iI0ZGRkZGRiIgaGVpZ2h0PSIyNy45MTQxIiBzdHlsZT0ic3Ryb2tlOiNCRjYxNkE7c3Ryb2tlLXdpZHRoOjE7IiB3aWR0aD0iMTAiIHg9IjEzMTYuNSIgeT0iNjYzLjE5NTMiLz48L2c+PGc+PHRpdGxlPjpEYXRhYmFzZTwvdGl0bGU+PHJlY3QgZmlsbD0iI0ZGRkZGRiIgaGVpZ2h0PSIyNy45MTQxIiBzdHlsZT0ic3Ryb2tlOiNCRjYxNkE7c3Ryb2tlLXdpZHRoOjE7IiB3aWR0aD0iMTAiIHg9IjEzMTYuNSIgeT0iNzQ2LjkzNzUiLz48L2c+PGc+PHRpdGxlPjpIJiM3ODc5OyB0aCYjNzg4OTtuZyB0aGFuaCB0byYjMjI1O248L3RpdGxlPjxyZWN0IGZpbGw9IiNGRkZGRkYiIGhlaWdodD0iMjcuOTE0MSIgc3R5bGU9InN0cm9rZTojQkY2MTZBO3N0cm9rZS13aWR0aDoxOyIgd2lkdGg9IjEwIiB4PSIxNDM4IiB5PSIzOTguMTA5NCIvPjwvZz48Zz48dGl0bGU+UENvbnRyb2xsZXI8L3RpdGxlPjxyZWN0IGZpbGw9IiNGRkZGRkYiIGhlaWdodD0iNDI5LjcxMDkiIHN0eWxlPSJzdHJva2U6I0JGNjE2QTtzdHJva2Utd2lkdGg6MTsiIHdpZHRoPSIxMCIgeD0iMTg4MiIgeT0iNjA3LjM2NzIiLz48L2c+PHJlY3QgZmlsbD0ibm9uZSIgaGVpZ2h0PSIzODQuNzk2OSIgc3R5bGU9InN0cm9rZTojMDAwMDAwO3N0cm9rZS13aWR0aDoxLjU7IiB3aWR0aD0iMTUxNiIgeD0iMTAiIHk9IjEzMi45Njg4Ii8+PHJlY3QgZmlsbD0ibm9uZSIgaGVpZ2h0PSI0NzMuNTM5MSIgc3R5bGU9InN0cm9rZTojMDAwMDAwO3N0cm9rZS13aWR0aDoxLjU7IiB3aWR0aD0iMTM1OS41IiB4PSI1ODMiIHk9IjU3MS41MzkxIi8+PGc+PHRpdGxlPjpUaCYjMjI0O25oIHZpJiMyMzQ7bjwvdGl0bGU+PHJlY3QgZmlsbD0iIzAwMDAwMCIgZmlsbC1vcGFjaXR5PSIwLjAwMDAwIiBoZWlnaHQ9IjQwOC43OTY5IiB3aWR0aD0iOCIgeD0iNTcuNSIgeT0iMTE1Ljk2ODgiLz48bGluZSBzdHlsZT0ic3Ryb2tlOiNCRjYxNkE7c3Ryb2tlLXdpZHRoOjAuNTtzdHJva2UtZGFzaGFycmF5OjUuMCw1LjA7IiB4MT0iNjEiIHgyPSI2MSIgeTE9IjExNS45Njg4IiB5Mj0iNTI0Ljc2NTYiLz48L2c+PGxpbmUgc3R5bGU9InN0cm9rZTojQkY2MTZBO3N0cm9rZS13aWR0aDoxO3N0cm9rZS1kYXNoYXJyYXk6MS4wLDQuMDsiIHgxPSI2MSIgeDI9IjYxIiB5MT0iNTI0Ljc2NTYiIHkyPSI1NjQuNTM5MSIvPjxnPjx0aXRsZT46VGgmIzIyNDtuaCB2aSYjMjM0O248L3RpdGxlPjxyZWN0IGZpbGw9IiMwMDAwMDAiIGZpbGwtb3BhY2l0eT0iMC4wMDAwMCIgaGVpZ2h0PSI0OTcuNTM5MSIgd2lkdGg9IjgiIHg9IjU3LjUiIHk9IjU2NC41MzkxIi8+PGxpbmUgc3R5bGU9InN0cm9rZTojQkY2MTZBO3N0cm9rZS13aWR0aDowLjU7c3Ryb2tlLWRhc2hhcnJheTo1LjAsNS4wOyIgeDE9IjYxIiB4Mj0iNjEiIHkxPSI1NjQuNTM5MSIgeTI9IjEwNjIuMDc4MSIvPjwvZz48Zz48dGl0bGU+OkJvb2tpbmdDb250cm9sbGVyPC90aXRsZT48cmVjdCBmaWxsPSIjMDAwMDAwIiBmaWxsLW9wYWNpdHk9IjAuMDAwMDAiIGhlaWdodD0iNDA4Ljc5NjkiIHdpZHRoPSI4IiB4PSI0MjIiIHk9IjExNS45Njg4Ii8+PGxpbmUgc3R5bGU9InN0cm9rZTojQkY2MTZBO3N0cm9rZS13aWR0aDowLjU7c3Ryb2tlLWRhc2hhcnJheTo1LjAsNS4wOyIgeDE9IjQyNiIgeDI9IjQyNiIgeTE9IjExNS45Njg4IiB5Mj0iNTI0Ljc2NTYiLz48L2c+PGxpbmUgc3R5bGU9InN0cm9rZTojQkY2MTZBO3N0cm9rZS13aWR0aDoxO3N0cm9rZS1kYXNoYXJyYXk6MS4wLDQuMDsiIHgxPSI0MjYiIHgyPSI0MjYiIHkxPSI1MjQuNzY1NiIgeTI9IjU2NC41MzkxIi8+PGc+PHRpdGxlPjpCb29raW5nQ29udHJvbGxlcjwvdGl0bGU+PHJlY3QgZmlsbD0iIzAwMDAwMCIgZmlsbC1vcGFjaXR5PSIwLjAwMDAwIiBoZWlnaHQ9IjQ5Ny41MzkxIiB3aWR0aD0iOCIgeD0iNDIyIiB5PSI1NjQuNTM5MSIvPjxsaW5lIHN0eWxlPSJzdHJva2U6I0JGNjE2QTtzdHJva2Utd2lkdGg6MC41O3N0cm9rZS1kYXNoYXJyYXk6NS4wLDUuMDsiIHgxPSI0MjYiIHgyPSI0MjYiIHkxPSI1NjQuNTM5MSIgeTI9IjEwNjIuMDc4MSIvPjwvZz48Zz48dGl0bGU+OkJvb2tpbmdTZXJ2aWNlPC90aXRsZT48cmVjdCBmaWxsPSIjMDAwMDAwIiBmaWxsLW9wYWNpdHk9IjAuMDAwMDAiIGhlaWdodD0iNDA4Ljc5NjkiIHdpZHRoPSI4IiB4PSI2NDguNSIgeT0iMTE1Ljk2ODgiLz48bGluZSBzdHlsZT0ic3Ryb2tlOiNCRjYxNkE7c3Ryb2tlLXdpZHRoOjAuNTtzdHJva2UtZGFzaGFycmF5OjUuMCw1LjA7IiB4MT0iNjUyIiB4Mj0iNjUyIiB5MT0iMTE1Ljk2ODgiIHkyPSI1MjQuNzY1NiIvPjwvZz48bGluZSBzdHlsZT0ic3Ryb2tlOiNCRjYxNkE7c3Ryb2tlLXdpZHRoOjE7c3Ryb2tlLWRhc2hhcnJheToxLjAsNC4wOyIgeDE9IjY1MiIgeDI9IjY1MiIgeTE9IjUyNC43NjU2IiB5Mj0iNTY0LjUzOTEiLz48Zz48dGl0bGU+OkJvb2tpbmdTZXJ2aWNlPC90aXRsZT48cmVjdCBmaWxsPSIjMDAwMDAwIiBmaWxsLW9wYWNpdHk9IjAuMDAwMDAiIGhlaWdodD0iNDk3LjUzOTEiIHdpZHRoPSI4IiB4PSI2NDguNSIgeT0iNTY0LjUzOTEiLz48bGluZSBzdHlsZT0ic3Ryb2tlOiNCRjYxNkE7c3Ryb2tlLXdpZHRoOjAuNTtzdHJva2UtZGFzaGFycmF5OjUuMCw1LjA7IiB4MT0iNjUyIiB4Mj0iNjUyIiB5MT0iNTY0LjUzOTEiIHkyPSIxMDYyLjA3ODEiLz48L2c+PGc+PHRpdGxlPjpGaWVsZFNlcnZpY2U8L3RpdGxlPjxyZWN0IGZpbGw9IiMwMDAwMDAiIGZpbGwtb3BhY2l0eT0iMC4wMDAwMCIgaGVpZ2h0PSI0MDguNzk2OSIgd2lkdGg9IjgiIHg9IjkwOSIgeT0iMTE1Ljk2ODgiLz48bGluZSBzdHlsZT0ic3Ryb2tlOiNCRjYxNkE7c3Ryb2tlLXdpZHRoOjAuNTtzdHJva2UtZGFzaGFycmF5OjUuMCw1LjA7IiB4MT0iOTEyLjUiIHgyPSI5MTIuNSIgeTE9IjExNS45Njg4IiB5Mj0iNTI0Ljc2NTYiLz48L2c+PGxpbmUgc3R5bGU9InN0cm9rZTojQkY2MTZBO3N0cm9rZS13aWR0aDoxO3N0cm9rZS1kYXNoYXJyYXk6MS4wLDQuMDsiIHgxPSI5MTIuNSIgeDI9IjkxMi41IiB5MT0iNTI0Ljc2NTYiIHkyPSI1NjQuNTM5MSIvPjxnPjx0aXRsZT46RmllbGRTZXJ2aWNlPC90aXRsZT48cmVjdCBmaWxsPSIjMDAwMDAwIiBmaWxsLW9wYWNpdHk9IjAuMDAwMDAiIGhlaWdodD0iNDk3LjUzOTEiIHdpZHRoPSI4IiB4PSI5MDkiIHk9IjU2NC41MzkxIi8+PGxpbmUgc3R5bGU9InN0cm9rZTojQkY2MTZBO3N0cm9rZS13aWR0aDowLjU7c3Ryb2tlLWRhc2hhcnJheTo1LjAsNS4wOyIgeDE9IjkxMi41IiB4Mj0iOTEyLjUiIHkxPSI1NjQuNTM5MSIgeTI9IjEwNjIuMDc4MSIvPjwvZz48Zz48dGl0bGU+OlBheW1lbnRTZXJ2aWNlPC90aXRsZT48cmVjdCBmaWxsPSIjMDAwMDAwIiBmaWxsLW9wYWNpdHk9IjAuMDAwMDAiIGhlaWdodD0iNDA4Ljc5NjkiIHdpZHRoPSI4IiB4PSIxMDMxIiB5PSIxMTUuOTY4OCIvPjxsaW5lIHN0eWxlPSJzdHJva2U6I0JGNjE2QTtzdHJva2Utd2lkdGg6MC41O3N0cm9rZS1kYXNoYXJyYXk6NS4wLDUuMDsiIHgxPSIxMDM0LjUiIHgyPSIxMDM0LjUiIHkxPSIxMTUuOTY4OCIgeTI9IjUyNC43NjU2Ii8+PC9nPjxsaW5lIHN0eWxlPSJzdHJva2U6I0JGNjE2QTtzdHJva2Utd2lkdGg6MTtzdHJva2UtZGFzaGFycmF5OjEuMCw0LjA7IiB4MT0iMTAzNC41IiB4Mj0iMTAzNC41IiB5MT0iNTI0Ljc2NTYiIHkyPSI1NjQuNTM5MSIvPjxnPjx0aXRsZT46UGF5bWVudFNlcnZpY2U8L3RpdGxlPjxyZWN0IGZpbGw9IiMwMDAwMDAiIGZpbGwtb3BhY2l0eT0iMC4wMDAwMCIgaGVpZ2h0PSI0OTcuNTM5MSIgd2lkdGg9IjgiIHg9IjEwMzEiIHk9IjU2NC41MzkxIi8+PGxpbmUgc3R5bGU9InN0cm9rZTojQkY2MTZBO3N0cm9rZS13aWR0aDowLjU7c3Ryb2tlLWRhc2hhcnJheTo1LjAsNS4wOyIgeDE9IjEwMzQuNSIgeDI9IjEwMzQuNSIgeTE9IjU2NC41MzkxIiB5Mj0iMTA2Mi4wNzgxIi8+PC9nPjxnPjx0aXRsZT46Tm90aWZpY2F0aW9uU2VydmljZTwvdGl0bGU+PHJlY3QgZmlsbD0iIzAwMDAwMCIgZmlsbC1vcGFjaXR5PSIwLjAwMDAwIiBoZWlnaHQ9IjQwOC43OTY5IiB3aWR0aD0iOCIgeD0iMTE3Ny41IiB5PSIxMTUuOTY4OCIvPjxsaW5lIHN0eWxlPSJzdHJva2U6I0JGNjE2QTtzdHJva2Utd2lkdGg6MC41O3N0cm9rZS1kYXNoYXJyYXk6NS4wLDUuMDsiIHgxPSIxMTgxLjUiIHgyPSIxMTgxLjUiIHkxPSIxMTUuOTY4OCIgeTI9IjUyNC43NjU2Ii8+PC9nPjxsaW5lIHN0eWxlPSJzdHJva2U6I0JGNjE2QTtzdHJva2Utd2lkdGg6MTtzdHJva2UtZGFzaGFycmF5OjEuMCw0LjA7IiB4MT0iMTE4MS41IiB4Mj0iMTE4MS41IiB5MT0iNTI0Ljc2NTYiIHkyPSI1NjQuNTM5MSIvPjxnPjx0aXRsZT46Tm90aWZpY2F0aW9uU2VydmljZTwvdGl0bGU+PHJlY3QgZmlsbD0iIzAwMDAwMCIgZmlsbC1vcGFjaXR5PSIwLjAwMDAwIiBoZWlnaHQ9IjQ5Ny41MzkxIiB3aWR0aD0iOCIgeD0iMTE3Ny41IiB5PSI1NjQuNTM5MSIvPjxsaW5lIHN0eWxlPSJzdHJva2U6I0JGNjE2QTtzdHJva2Utd2lkdGg6MC41O3N0cm9rZS1kYXNoYXJyYXk6NS4wLDUuMDsiIHgxPSIxMTgxLjUiIHgyPSIxMTgxLjUiIHkxPSI1NjQuNTM5MSIgeTI9IjEwNjIuMDc4MSIvPjwvZz48Zz48dGl0bGU+OkRhdGFiYXNlPC90aXRsZT48cmVjdCBmaWxsPSIjMDAwMDAwIiBmaWxsLW9wYWNpdHk9IjAuMDAwMDAiIGhlaWdodD0iNDA4Ljc5NjkiIHdpZHRoPSI4IiB4PSIxMzE3LjUiIHk9IjExNS45Njg4Ii8+PGxpbmUgc3R5bGU9InN0cm9rZTojQkY2MTZBO3N0cm9rZS13aWR0aDowLjU7c3Ryb2tlLWRhc2hhcnJheTo1LjAsNS4wOyIgeDE9IjEzMjEiIHgyPSIxMzIxIiB5MT0iMTE1Ljk2ODgiIHkyPSI1MjQuNzY1NiIvPjwvZz48bGluZSBzdHlsZT0ic3Ryb2tlOiNCRjYxNkE7c3Ryb2tlLXdpZHRoOjE7c3Ryb2tlLWRhc2hhcnJheToxLjAsNC4wOyIgeDE9IjEzMjEiIHgyPSIxMzIxIiB5MT0iNTI0Ljc2NTYiIHkyPSI1NjQuNTM5MSIvPjxnPjx0aXRsZT46RGF0YWJhc2U8L3RpdGxlPjxyZWN0IGZpbGw9IiMwMDAwMDAiIGZpbGwtb3BhY2l0eT0iMC4wMDAwMCIgaGVpZ2h0PSI0OTcuNTM5MSIgd2lkdGg9IjgiIHg9IjEzMTcuNSIgeT0iNTY0LjUzOTEiLz48bGluZSBzdHlsZT0ic3Ryb2tlOiNCRjYxNkE7c3Ryb2tlLXdpZHRoOjAuNTtzdHJva2UtZGFzaGFycmF5OjUuMCw1LjA7IiB4MT0iMTMyMSIgeDI9IjEzMjEiIHkxPSI1NjQuNTM5MSIgeTI9IjEwNjIuMDc4MSIvPjwvZz48Zz48dGl0bGU+OkgmIzc4Nzk7IHRoJiM3ODg5O25nIHRoYW5oIHRvJiMyMjU7bjwvdGl0bGU+PHJlY3QgZmlsbD0iIzAwMDAwMCIgZmlsbC1vcGFjaXR5PSIwLjAwMDAwIiBoZWlnaHQ9IjQwOC43OTY5IiB3aWR0aD0iOCIgeD0iMTQzOSIgeT0iMTE1Ljk2ODgiLz48bGluZSBzdHlsZT0ic3Ryb2tlOiNCRjYxNkE7c3Ryb2tlLXdpZHRoOjAuNTtzdHJva2UtZGFzaGFycmF5OjUuMCw1LjA7IiB4MT0iMTQ0MyIgeDI9IjE0NDMiIHkxPSIxMTUuOTY4OCIgeTI9IjUyNC43NjU2Ii8+PC9nPjxsaW5lIHN0eWxlPSJzdHJva2U6I0JGNjE2QTtzdHJva2Utd2lkdGg6MTtzdHJva2UtZGFzaGFycmF5OjEuMCw0LjA7IiB4MT0iMTQ0MyIgeDI9IjE0NDMiIHkxPSI1MjQuNzY1NiIgeTI9IjU2NC41MzkxIi8+PGc+PHRpdGxlPjpIJiM3ODc5OyB0aCYjNzg4OTtuZyB0aGFuaCB0byYjMjI1O248L3RpdGxlPjxyZWN0IGZpbGw9IiMwMDAwMDAiIGZpbGwtb3BhY2l0eT0iMC4wMDAwMCIgaGVpZ2h0PSI0OTcuNTM5MSIgd2lkdGg9IjgiIHg9IjE0MzkiIHk9IjU2NC41MzkxIi8+PGxpbmUgc3R5bGU9InN0cm9rZTojQkY2MTZBO3N0cm9rZS13aWR0aDowLjU7c3Ryb2tlLWRhc2hhcnJheTo1LjAsNS4wOyIgeDE9IjE0NDMiIHgyPSIxNDQzIiB5MT0iNTY0LjUzOTEiIHkyPSIxMDYyLjA3ODEiLz48L2c+PGc+PHRpdGxlPlBDb250cm9sbGVyPC90aXRsZT48cmVjdCBmaWxsPSIjMDAwMDAwIiBmaWxsLW9wYWNpdHk9IjAuMDAwMDAiIGhlaWdodD0iNDA4Ljc5NjkiIHdpZHRoPSI4IiB4PSIxODgzIiB5PSIxMTUuOTY4OCIvPjxsaW5lIHN0eWxlPSJzdHJva2U6I0JGNjE2QTtzdHJva2Utd2lkdGg6MC41O3N0cm9rZS1kYXNoYXJyYXk6NS4wLDUuMDsiIHgxPSIxODg2LjUiIHgyPSIxODg2LjUiIHkxPSIxMTUuOTY4OCIgeTI9IjUyNC43NjU2Ii8+PC9nPjxsaW5lIHN0eWxlPSJzdHJva2U6I0JGNjE2QTtzdHJva2Utd2lkdGg6MTtzdHJva2UtZGFzaGFycmF5OjEuMCw0LjA7IiB4MT0iMTg4Ni41IiB4Mj0iMTg4Ni41IiB5MT0iNTI0Ljc2NTYiIHkyPSI1NjQuNTM5MSIvPjxnPjx0aXRsZT5QQ29udHJvbGxlcjwvdGl0bGU+PHJlY3QgZmlsbD0iIzAwMDAwMCIgZmlsbC1vcGFjaXR5PSIwLjAwMDAwIiBoZWlnaHQ9IjQ5Ny41MzkxIiB3aWR0aD0iOCIgeD0iMTg4MyIgeT0iNTY0LjUzOTEiLz48bGluZSBzdHlsZT0ic3Ryb2tlOiNCRjYxNkE7c3Ryb2tlLXdpZHRoOjAuNTtzdHJva2UtZGFzaGFycmF5OjUuMCw1LjA7IiB4MT0iMTg4Ni41IiB4Mj0iMTg4Ni41IiB5MT0iNTY0LjUzOTEiIHkyPSIxMDYyLjA3ODEiLz48L2c+PGcgY2xhc3M9InBhcnRpY2lwYW50IHBhcnRpY2lwYW50LWhlYWQiIGRhdGEtcGFydGljaXBhbnQ9Ik1lbWJlciI+PHRleHQgZmlsbD0iIzAwMDAwMCIgZm9udC1mYW1pbHk9InNhbnMtc2VyaWYiIGZvbnQtc2l6ZT0iMTQiIGxlbmd0aEFkanVzdD0ic3BhY2luZyIgdGV4dExlbmd0aD0iNzciIHg9IjIwIiB5PSIxMTQuMjE4OCI+OlRoJiMyMjQ7bmggdmkmIzIzNDtuPC90ZXh0PjxlbGxpcHNlIGN4PSI2MS41IiBjeT0iNDkuNDg0NCIgZmlsbD0iI0UyRTJGMCIgcng9IjgiIHJ5PSI4IiBzdHlsZT0ic3Ryb2tlOiMxODE4MTg7c3Ryb2tlLXdpZHRoOjAuNTsiLz48cGF0aCBkPSJNNjEuNSw1Ny40ODQ0IEw2MS41LDg0LjQ4NDQgTTQ4LjUsNjUuNDg0NCBMNzQuNSw2NS40ODQ0IE02MS41LDg0LjQ4NDQgTDQ4LjUsOTkuNDg0NCBNNjEuNSw4NC40ODQ0IEw3NC41LDk5LjQ4NDQiIGZpbGw9Im5vbmUiIHN0eWxlPSJzdHJva2U6IzE4MTgxODtzdHJva2Utd2lkdGg6MC41OyIvPjwvZz48ZyBjbGFzcz0icGFydGljaXBhbnQgcGFydGljaXBhbnQtdGFpbCIgZGF0YS1wYXJ0aWNpcGFudD0iTWVtYmVyIj48dGV4dCBmaWxsPSIjMDAwMDAwIiBmb250LWZhbWlseT0ic2Fucy1zZXJpZiIgZm9udC1zaXplPSIxNCIgbGVuZ3RoQWRqdXN0PSJzcGFjaW5nIiB0ZXh0TGVuZ3RoPSI3NyIgeD0iMjAiIHk9IjEwNzQuMzEyNSI+OlRoJiMyMjQ7bmggdmkmIzIzNDtuPC90ZXh0PjxlbGxpcHNlIGN4PSI2MS41IiBjeT0iMTA4NC41NjI1IiBmaWxsPSIjRTJFMkYwIiByeD0iOCIgcnk9IjgiIHN0eWxlPSJzdHJva2U6IzE4MTgxODtzdHJva2Utd2lkdGg6MC41OyIvPjxwYXRoIGQ9Ik02MS41LDEwOTIuNTYyNSBMNjEuNSwxMTE5LjU2MjUgTTQ4LjUsMTEwMC41NjI1IEw3NC41LDExMDAuNTYyNSBNNjEuNSwxMTE5LjU2MjUgTDQ4LjUsMTEzNC41NjI1IE02MS41LDExMTkuNTYyNSBMNzQuNSwxMTM0LjU2MjUiIGZpbGw9Im5vbmUiIHN0eWxlPSJzdHJva2U6IzE4MTgxODtzdHJva2Utd2lkdGg6MC41OyIvPjwvZz48ZyBjbGFzcz0icGFydGljaXBhbnQgcGFydGljaXBhbnQtaGVhZCIgZGF0YS1wYXJ0aWNpcGFudD0iQkNvbnRyb2xsZXIiPjxyZWN0IGZpbGw9IiNFMkUyRjAiIGhlaWdodD0iMjguOTg0NCIgcng9IjIuNSIgcnk9IjIuNSIgc3R5bGU9InN0cm9rZTojMTgxODE4O3N0cm9rZS13aWR0aDowLjU7IiB3aWR0aD0iMTQwIiB4PSIzNTYiIHk9Ijg1Ljk4NDQiLz48dGV4dCBmaWxsPSIjMDAwMDAwIiBmb250LWZhbWlseT0ic2Fucy1zZXJpZiIgZm9udC1zaXplPSIxNCIgbGVuZ3RoQWRqdXN0PSJzcGFjaW5nIiB0ZXh0TGVuZ3RoPSIxMjYiIHg9IjM2MyIgeT0iMTA2LjIxODgiPjpCb29raW5nQ29udHJvbGxlcjwvdGV4dD48L2c+PGcgY2xhc3M9InBhcnRpY2lwYW50IHBhcnRpY2lwYW50LXRhaWwiIGRhdGEtcGFydGljaXBhbnQ9IkJDb250cm9sbGVyIj48cmVjdCBmaWxsPSIjRTJFMkYwIiBoZWlnaHQ9IjI4Ljk4NDQiIHJ4PSIyLjUiIHJ5PSIyLjUiIHN0eWxlPSJzdHJva2U6IzE4MTgxODtzdHJva2Utd2lkdGg6MC41OyIgd2lkdGg9IjE0MCIgeD0iMzU2IiB5PSIxMDYxLjA3ODEiLz48dGV4dCBmaWxsPSIjMDAwMDAwIiBmb250LWZhbWlseT0ic2Fucy1zZXJpZiIgZm9udC1zaXplPSIxNCIgbGVuZ3RoQWRqdXN0PSJzcGFjaW5nIiB0ZXh0TGVuZ3RoPSIxMjYiIHg9IjM2MyIgeT0iMTA4MS4zMTI1Ij46Qm9va2luZ0NvbnRyb2xsZXI8L3RleHQ+PC9nPjxnIGNsYXNzPSJwYXJ0aWNpcGFudCBwYXJ0aWNpcGFudC1oZWFkIiBkYXRhLXBhcnRpY2lwYW50PSJCU2VydmljZSI+PHJlY3QgZmlsbD0iI0UyRTJGMCIgaGVpZ2h0PSIyOC45ODQ0IiByeD0iMi41IiByeT0iMi41IiBzdHlsZT0ic3Ryb2tlOiMxODE4MTg7c3Ryb2tlLXdpZHRoOjAuNTsiIHdpZHRoPSIxMTkiIHg9IjU5MyIgeT0iODUuOTg0NCIvPjx0ZXh0IGZpbGw9IiMwMDAwMDAiIGZvbnQtZmFtaWx5PSJzYW5zLXNlcmlmIiBmb250LXNpemU9IjE0IiBsZW5ndGhBZGp1c3Q9InNwYWNpbmciIHRleHRMZW5ndGg9IjEwNSIgeD0iNjAwIiB5PSIxMDYuMjE4OCI+OkJvb2tpbmdTZXJ2aWNlPC90ZXh0PjwvZz48ZyBjbGFzcz0icGFydGljaXBhbnQgcGFydGljaXBhbnQtdGFpbCIgZGF0YS1wYXJ0aWNpcGFudD0iQlNlcnZpY2UiPjxyZWN0IGZpbGw9IiNFMkUyRjAiIGhlaWdodD0iMjguOTg0NCIgcng9IjIuNSIgcnk9IjIuNSIgc3R5bGU9InN0cm9rZTojMTgxODE4O3N0cm9rZS13aWR0aDowLjU7IiB3aWR0aD0iMTE5IiB4PSI1OTMiIHk9IjEwNjEuMDc4MSIvPjx0ZXh0IGZpbGw9IiMwMDAwMDAiIGZvbnQtZmFtaWx5PSJzYW5zLXNlcmlmIiBmb250LXNpemU9IjE0IiBsZW5ndGhBZGp1c3Q9InNwYWNpbmciIHRleHRMZW5ndGg9IjEwNSIgeD0iNjAwIiB5PSIxMDgxLjMxMjUiPjpCb29raW5nU2VydmljZTwvdGV4dD48L2c+PGcgY2xhc3M9InBhcnRpY2lwYW50IHBhcnRpY2lwYW50LWhlYWQiIGRhdGEtcGFydGljaXBhbnQ9IkZTZXJ2aWNlIj48cmVjdCBmaWxsPSIjRTJFMkYwIiBoZWlnaHQ9IjI4Ljk4NDQiIHJ4PSIyLjUiIHJ5PSIyLjUiIHN0eWxlPSJzdHJva2U6IzE4MTgxODtzdHJva2Utd2lkdGg6MC41OyIgd2lkdGg9IjEwNSIgeD0iODYwLjUiIHk9Ijg1Ljk4NDQiLz48dGV4dCBmaWxsPSIjMDAwMDAwIiBmb250LWZhbWlseT0ic2Fucy1zZXJpZiIgZm9udC1zaXplPSIxNCIgbGVuZ3RoQWRqdXN0PSJzcGFjaW5nIiB0ZXh0TGVuZ3RoPSI5MSIgeD0iODY3LjUiIHk9IjEwNi4yMTg4Ij46RmllbGRTZXJ2aWNlPC90ZXh0PjwvZz48ZyBjbGFzcz0icGFydGljaXBhbnQgcGFydGljaXBhbnQtdGFpbCIgZGF0YS1wYXJ0aWNpcGFudD0iRlNlcnZpY2UiPjxyZWN0IGZpbGw9IiNFMkUyRjAiIGhlaWdodD0iMjguOTg0NCIgcng9IjIuNSIgcnk9IjIuNSIgc3R5bGU9InN0cm9rZTojMTgxODE4O3N0cm9rZS13aWR0aDowLjU7IiB3aWR0aD0iMTA1IiB4PSI4NjAuNSIgeT0iMTA2MS4wNzgxIi8+PHRleHQgZmlsbD0iIzAwMDAwMCIgZm9udC1mYW1pbHk9InNhbnMtc2VyaWYiIGZvbnQtc2l6ZT0iMTQiIGxlbmd0aEFkanVzdD0ic3BhY2luZyIgdGV4dExlbmd0aD0iOTEiIHg9Ijg2Ny41IiB5PSIxMDgxLjMxMjUiPjpGaWVsZFNlcnZpY2U8L3RleHQ+PC9nPjxnIGNsYXNzPSJwYXJ0aWNpcGFudCBwYXJ0aWNpcGFudC1oZWFkIiBkYXRhLXBhcnRpY2lwYW50PSJQU2VydmljZSI+PHJlY3QgZmlsbD0iI0UyRTJGMCIgaGVpZ2h0PSIyOC45ODQ0IiByeD0iMi41IiByeT0iMi41IiBzdHlsZT0ic3Ryb2tlOiMxODE4MTg7c3Ryb2tlLXdpZHRoOjAuNTsiIHdpZHRoPSIxMTkiIHg9Ijk3NS41IiB5PSI4NS45ODQ0Ii8+PHRleHQgZmlsbD0iIzAwMDAwMCIgZm9udC1mYW1pbHk9InNhbnMtc2VyaWYiIGZvbnQtc2l6ZT0iMTQiIGxlbmd0aEFkanVzdD0ic3BhY2luZyIgdGV4dExlbmd0aD0iMTA1IiB4PSI5ODIuNSIgeT0iMTA2LjIxODgiPjpQYXltZW50U2VydmljZTwvdGV4dD48L2c+PGcgY2xhc3M9InBhcnRpY2lwYW50IHBhcnRpY2lwYW50LXRhaWwiIGRhdGEtcGFydGljaXBhbnQ9IlBTZXJ2aWNlIj48cmVjdCBmaWxsPSIjRTJFMkYwIiBoZWlnaHQ9IjI4Ljk4NDQiIHJ4PSIyLjUiIHJ5PSIyLjUiIHN0eWxlPSJzdHJva2U6IzE4MTgxODtzdHJva2Utd2lkdGg6MC41OyIgd2lkdGg9IjExOSIgeD0iOTc1LjUiIHk9IjEwNjEuMDc4MSIvPjx0ZXh0IGZpbGw9IiMwMDAwMDAiIGZvbnQtZmFtaWx5PSJzYW5zLXNlcmlmIiBmb250LXNpemU9IjE0IiBsZW5ndGhBZGp1c3Q9InNwYWNpbmciIHRleHRMZW5ndGg9IjEwNSIgeD0iOTgyLjUiIHk9IjEwODEuMzEyNSI+OlBheW1lbnRTZXJ2aWNlPC90ZXh0PjwvZz48ZyBjbGFzcz0icGFydGljaXBhbnQgcGFydGljaXBhbnQtaGVhZCIgZGF0YS1wYXJ0aWNpcGFudD0iTm90aVNlcnZpY2UiPjxyZWN0IGZpbGw9IiNFMkUyRjAiIGhlaWdodD0iMjguOTg0NCIgcng9IjIuNSIgcnk9IjIuNSIgc3R5bGU9InN0cm9rZTojMTgxODE4O3N0cm9rZS13aWR0aDowLjU7IiB3aWR0aD0iMTU0IiB4PSIxMTA0LjUiIHk9Ijg1Ljk4NDQiLz48dGV4dCBmaWxsPSIjMDAwMDAwIiBmb250LWZhbWlseT0ic2Fucy1zZXJpZiIgZm9udC1zaXplPSIxNCIgbGVuZ3RoQWRqdXN0PSJzcGFjaW5nIiB0ZXh0TGVuZ3RoPSIxNDAiIHg9IjExMTEuNSIgeT0iMTA2LjIxODgiPjpOb3RpZmljYXRpb25TZXJ2aWNlPC90ZXh0PjwvZz48ZyBjbGFzcz0icGFydGljaXBhbnQgcGFydGljaXBhbnQtdGFpbCIgZGF0YS1wYXJ0aWNpcGFudD0iTm90aVNlcnZpY2UiPjxyZWN0IGZpbGw9IiNFMkUyRjAiIGhlaWdodD0iMjguOTg0NCIgcng9IjIuNSIgcnk9IjIuNSIgc3R5bGU9InN0cm9rZTojMTgxODE4O3N0cm9rZS13aWR0aDowLjU7IiB3aWR0aD0iMTU0IiB4PSIxMTA0LjUiIHk9IjEwNjEuMDc4MSIvPjx0ZXh0IGZpbGw9IiMwMDAwMDAiIGZvbnQtZmFtaWx5PSJzYW5zLXNlcmlmIiBmb250LXNpemU9IjE0IiBsZW5ndGhBZGp1c3Q9InNwYWNpbmciIHRleHRMZW5ndGg9IjE0MCIgeD0iMTExMS41IiB5PSIxMDgxLjMxMjUiPjpOb3RpZmljYXRpb25TZXJ2aWNlPC90ZXh0PjwvZz48ZyBjbGFzcz0icGFydGljaXBhbnQgcGFydGljaXBhbnQtaGVhZCIgZGF0YS1wYXJ0aWNpcGFudD0iREIiPjxyZWN0IGZpbGw9IiNFMkUyRjAiIGhlaWdodD0iMjguOTg0NCIgcng9IjIuNSIgcnk9IjIuNSIgc3R5bGU9InN0cm9rZTojMTgxODE4O3N0cm9rZS13aWR0aDowLjU7IiB3aWR0aD0iNzciIHg9IjEyODMiIHk9Ijg1Ljk4NDQiLz48dGV4dCBmaWxsPSIjMDAwMDAwIiBmb250LWZhbWlseT0ic2Fucy1zZXJpZiIgZm9udC1zaXplPSIxNCIgbGVuZ3RoQWRqdXN0PSJzcGFjaW5nIiB0ZXh0TGVuZ3RoPSI2MyIgeD0iMTI5MCIgeT0iMTA2LjIxODgiPjpEYXRhYmFzZTwvdGV4dD48L2c+PGcgY2xhc3M9InBhcnRpY2lwYW50IHBhcnRpY2lwYW50LXRhaWwiIGRhdGEtcGFydGljaXBhbnQ9IkRCIj48cmVjdCBmaWxsPSIjRTJFMkYwIiBoZWlnaHQ9IjI4Ljk4NDQiIHJ4PSIyLjUiIHJ5PSIyLjUiIHN0eWxlPSJzdHJva2U6IzE4MTgxODtzdHJva2Utd2lkdGg6MC41OyIgd2lkdGg9Ijc3IiB4PSIxMjgzIiB5PSIxMDYxLjA3ODEiLz48dGV4dCBmaWxsPSIjMDAwMDAwIiBmb250LWZhbWlseT0ic2Fucy1zZXJpZiIgZm9udC1zaXplPSIxNCIgbGVuZ3RoQWRqdXN0PSJzcGFjaW5nIiB0ZXh0TGVuZ3RoPSI2MyIgeD0iMTI5MCIgeT0iMTA4MS4zMTI1Ij46RGF0YWJhc2U8L3RleHQ+PC9nPjxnIGNsYXNzPSJwYXJ0aWNpcGFudCBwYXJ0aWNpcGFudC1oZWFkIiBkYXRhLXBhcnRpY2lwYW50PSJQYXltZW50R2F0ZXdheSI+PHRleHQgZmlsbD0iIzAwMDAwMCIgZm9udC1mYW1pbHk9InNhbnMtc2VyaWYiIGZvbnQtc2l6ZT0iMTQiIGxlbmd0aEFkanVzdD0ic3BhY2luZyIgdGV4dExlbmd0aD0iMTQwIiB4PSIxMzcwIiB5PSIxMTQuMjE4OCI+OkgmIzc4Nzk7IHRoJiM3ODg5O25nIHRoYW5oIHRvJiMyMjU7bjwvdGV4dD48ZWxsaXBzZSBjeD0iMTQ0MyIgY3k9IjQ5LjQ4NDQiIGZpbGw9IiNFMkUyRjAiIHJ4PSI4IiByeT0iOCIgc3R5bGU9InN0cm9rZTojMTgxODE4O3N0cm9rZS13aWR0aDowLjU7Ii8+PHBhdGggZD0iTTE0NDMsNTcuNDg0NCBMMTQ0Myw4NC40ODQ0IE0xNDMwLDY1LjQ4NDQgTDE0NTYsNjUuNDg0NCBNMTQ0Myw4NC40ODQ0IEwxNDMwLDk5LjQ4NDQgTTE0NDMsODQuNDg0NCBMMTQ1Niw5OS40ODQ0IiBmaWxsPSJub25lIiBzdHlsZT0ic3Ryb2tlOiMxODE4MTg7c3Ryb2tlLXdpZHRoOjAuNTsiLz48L2c+PGcgY2xhc3M9InBhcnRpY2lwYW50IHBhcnRpY2lwYW50LXRhaWwiIGRhdGEtcGFydGljaXBhbnQ9IlBheW1lbnRHYXRld2F5Ij48dGV4dCBmaWxsPSIjMDAwMDAwIiBmb250LWZhbWlseT0ic2Fucy1zZXJpZiIgZm9udC1zaXplPSIxNCIgbGVuZ3RoQWRqdXN0PSJzcGFjaW5nIiB0ZXh0TGVuZ3RoPSIxNDAiIHg9IjEzNzAiIHk9IjEwNzQuMzEyNSI+OkgmIzc4Nzk7IHRoJiM3ODg5O25nIHRoYW5oIHRvJiMyMjU7bjwvdGV4dD48ZWxsaXBzZSBjeD0iMTQ0MyIgY3k9IjEwODQuNTYyNSIgZmlsbD0iI0UyRTJGMCIgcng9IjgiIHJ5PSI4IiBzdHlsZT0ic3Ryb2tlOiMxODE4MTg7c3Ryb2tlLXdpZHRoOjAuNTsiLz48cGF0aCBkPSJNMTQ0MywxMDkyLjU2MjUgTDE0NDMsMTExOS41NjI1IE0xNDMwLDExMDAuNTYyNSBMMTQ1NiwxMTAwLjU2MjUgTTE0NDMsMTExOS41NjI1IEwxNDMwLDExMzQuNTYyNSBNMTQ0MywxMTE5LjU2MjUgTDE0NTYsMTEzNC41NjI1IiBmaWxsPSJub25lIiBzdHlsZT0ic3Ryb2tlOiMxODE4MTg7c3Ryb2tlLXdpZHRoOjAuNTsiLz48L2c+PGcgY2xhc3M9InBhcnRpY2lwYW50IHBhcnRpY2lwYW50LWhlYWQiIGRhdGEtcGFydGljaXBhbnQ9IlBDb250cm9sbGVyIj48cmVjdCBmaWxsPSIjRTJFMkYwIiBoZWlnaHQ9IjI4Ljk4NDQiIHJ4PSIyLjUiIHJ5PSIyLjUiIHN0eWxlPSJzdHJva2U6IzVFODFBQztzdHJva2Utd2lkdGg6MC41OyIgd2lkdGg9IjkxIiB4PSIxODQxLjUiIHk9Ijg1Ljk4NDQiLz48dGV4dCBmaWxsPSIjMDAwMDAwIiBmb250LWZhbWlseT0ic2Fucy1zZXJpZiIgZm9udC1zaXplPSIxNCIgbGVuZ3RoQWRqdXN0PSJzcGFjaW5nIiB0ZXh0TGVuZ3RoPSI3NyIgeD0iMTg0OC41IiB5PSIxMDYuMjE4OCI+UENvbnRyb2xsZXI8L3RleHQ+PC9nPjxnIGNsYXNzPSJwYXJ0aWNpcGFudCBwYXJ0aWNpcGFudC10YWlsIiBkYXRhLXBhcnRpY2lwYW50PSJQQ29udHJvbGxlciI+PHJlY3QgZmlsbD0iI0UyRTJGMCIgaGVpZ2h0PSIyOC45ODQ0IiByeD0iMi41IiByeT0iMi41IiBzdHlsZT0ic3Ryb2tlOiM1RTgxQUM7c3Ryb2tlLXdpZHRoOjAuNTsiIHdpZHRoPSI5MSIgeD0iMTg0MS41IiB5PSIxMDYxLjA3ODEiLz48dGV4dCBmaWxsPSIjMDAwMDAwIiBmb250LWZhbWlseT0ic2Fucy1zZXJpZiIgZm9udC1zaXplPSIxNCIgbGVuZ3RoQWRqdXN0PSJzcGFjaW5nIiB0ZXh0TGVuZ3RoPSI3NyIgeD0iMTg0OC41IiB5PSIxMDgxLjMxMjUiPlBDb250cm9sbGVyPC90ZXh0PjwvZz48Zz48dGl0bGU+OkJvb2tpbmdDb250cm9sbGVyPC90aXRsZT48cmVjdCBmaWxsPSIjRkZGRkZGIiBoZWlnaHQ9IjM0MC45Njg4IiBzdHlsZT0ic3Ryb2tlOiNCRjYxNkE7c3Ryb2tlLXdpZHRoOjE7IiB3aWR0aD0iMTAiIHg9IjQyMSIgeT0iMTY4Ljc5NjkiLz48L2c+PGc+PHRpdGxlPjpCb29raW5nU2VydmljZTwvdGl0bGU+PHJlY3QgZmlsbD0iI0ZGRkZGRiIgaGVpZ2h0PSIyODUuMTQwNiIgc3R5bGU9InN0cm9rZTojQkY2MTZBO3N0cm9rZS13aWR0aDoxOyIgd2lkdGg9IjEwIiB4PSI2NDcuNSIgeT0iMTk2LjcxMDkiLz48L2c+PGc+PHRpdGxlPjpCb29raW5nU2VydmljZTwvdGl0bGU+PHJlY3QgZmlsbD0iI0ZGRkZGRiIgaGVpZ2h0PSIyNjIuMjI2NiIgc3R5bGU9InN0cm9rZTojQkY2MTZBO3N0cm9rZS13aWR0aDoxOyIgd2lkdGg9IjEwIiB4PSI2NDcuNSIgeT0iNzE5LjAyMzQiLz48L2c+PGc+PHRpdGxlPjpGaWVsZFNlcnZpY2U8L3RpdGxlPjxyZWN0IGZpbGw9IiNGRkZGRkYiIGhlaWdodD0iMjcuOTE0MSIgc3R5bGU9InN0cm9rZTojQkY2MTZBO3N0cm9rZS13aWR0aDoxOyIgd2lkdGg9IjEwIiB4PSI5MDgiIHk9IjI1OC41MzkxIi8+PC9nPjxnPjx0aXRsZT46UGF5bWVudFNlcnZpY2U8L3RpdGxlPjxyZWN0IGZpbGw9IiNGRkZGRkYiIGhlaWdodD0iODMuNzQyMiIgc3R5bGU9InN0cm9rZTojQkY2MTZBO3N0cm9rZS13aWR0aDoxOyIgd2lkdGg9IjEwIiB4PSIxMDMwIiB5PSIzNzAuMTk1MyIvPjwvZz48Zz48dGl0bGU+OlBheW1lbnRTZXJ2aWNlPC90aXRsZT48cmVjdCBmaWxsPSIjRkZGRkZGIiBoZWlnaHQ9IjM3My44ODI4IiBzdHlsZT0ic3Ryb2tlOiNCRjYxNkE7c3Ryb2tlLXdpZHRoOjE7IiB3aWR0aD0iMTAiIHg9IjEwMzAiIHk9IjYzNS4yODEzIi8+PC9nPjxnPjx0aXRsZT46Tm90aWZpY2F0aW9uU2VydmljZTwvdGl0bGU+PHJlY3QgZmlsbD0iI0ZGRkZGRiIgaGVpZ2h0PSI2MS44MjgxIiBzdHlsZT0ic3Ryb2tlOiNCRjYxNkE7c3Ryb2tlLXdpZHRoOjE7IiB3aWR0aD0iMTAiIHg9IjExNzYuNSIgeT0iOTE5LjQyMTkiLz48L2c+PGc+PHRpdGxlPjpEYXRhYmFzZTwvdGl0bGU+PHJlY3QgZmlsbD0iI0ZGRkZGRiIgaGVpZ2h0PSIyNy45MTQxIiBzdHlsZT0ic3Ryb2tlOiNCRjYxNkE7c3Ryb2tlLXdpZHRoOjE7IiB3aWR0aD0iMTAiIHg9IjEzMTYuNSIgeT0iMzE0LjM2NzIiLz48L2c+PGc+PHRpdGxlPjpEYXRhYmFzZTwvdGl0bGU+PHJlY3QgZmlsbD0iI0ZGRkZGRiIgaGVpZ2h0PSIyNy45MTQxIiBzdHlsZT0ic3Ryb2tlOiNCRjYxNkE7c3Ryb2tlLXdpZHRoOjE7IiB3aWR0aD0iMTAiIHg9IjEzMTYuNSIgeT0iNjYzLjE5NTMiLz48L2c+PGc+PHRpdGxlPjpEYXRhYmFzZTwvdGl0bGU+PHJlY3QgZmlsbD0iI0ZGRkZGRiIgaGVpZ2h0PSIyNy45MTQxIiBzdHlsZT0ic3Ryb2tlOiNCRjYxNkE7c3Ryb2tlLXdpZHRoOjE7IiB3aWR0aD0iMTAiIHg9IjEzMTYuNSIgeT0iNzQ2LjkzNzUiLz48L2c+PGc+PHRpdGxlPjpIJiM3ODc5OyB0aCYjNzg4OTtuZyB0aGFuaCB0byYjMjI1O248L3RpdGxlPjxyZWN0IGZpbGw9IiNGRkZGRkYiIGhlaWdodD0iMjcuOTE0MSIgc3R5bGU9InN0cm9rZTojQkY2MTZBO3N0cm9rZS13aWR0aDoxOyIgd2lkdGg9IjEwIiB4PSIxNDM4IiB5PSIzOTguMTA5NCIvPjwvZz48Zz48dGl0bGU+UENvbnRyb2xsZXI8L3RpdGxlPjxyZWN0IGZpbGw9IiNGRkZGRkYiIGhlaWdodD0iNDI5LjcxMDkiIHN0eWxlPSJzdHJva2U6I0JGNjE2QTtzdHJva2Utd2lkdGg6MTsiIHdpZHRoPSIxMCIgeD0iMTg4MiIgeT0iNjA3LjM2NzIiLz48L2c+PHBhdGggZD0iTTEwLDEzMi45Njg4IEwyNjkuNSwxMzIuOTY4OCBMMjY5LjUsMTM4Ljg4MjggTDI1OS41LDE0OC44ODI4IEwxMCwxNDguODgyOCBMMTAsMTMyLjk2ODgiIGZpbGw9IiNFRUVFRUUiIHN0eWxlPSJzdHJva2U6IzAwMDAwMDtzdHJva2Utd2lkdGg6MS41OyIvPjxyZWN0IGZpbGw9Im5vbmUiIGhlaWdodD0iMzg0Ljc5NjkiIHN0eWxlPSJzdHJva2U6IzAwMDAwMDtzdHJva2Utd2lkdGg6MS41OyIgd2lkdGg9IjE1MTYiIHg9IjEwIiB5PSIxMzIuOTY4OCIvPjx0ZXh0IGZpbGw9IiMwMDAwMDAiIGZvbnQtZmFtaWx5PSJzYW5zLXNlcmlmIiBmb250LXNpemU9IjEzIiBmb250LXdlaWdodD0iYm9sZCIgbGVuZ3RoQWRqdXN0PSJzcGFjaW5nIiB0ZXh0TGVuZ3RoPSIyMTQuNSIgeD0iMjUiIHk9IjE0Ni4yNTc4Ij5MdSYjNzg5MTtuZyBLaCYjMjI1O2NoIGgmIzIyNDtuZyBLaCYjNzkwMztpIHQmIzc4NDE7byAmIzI3MjsmIzc4NjM7dCBzJiMyMjY7bjwvdGV4dD48ZyBjbGFzcz0ibWVzc2FnZSIgZGF0YS1wYXJ0aWNpcGFudC0xPSJNZW1iZXIiIGRhdGEtcGFydGljaXBhbnQtMj0iQkNvbnRyb2xsZXIiPjxwb2x5Z29uIGZpbGw9IiMxODE4MTgiIHBvaW50cz0iNDA5LDE2NC43OTY5LDQxOSwxNjguNzk2OSw0MDksMTcyLjc5NjksNDEzLDE2OC43OTY5IiBzdHlsZT0ic3Ryb2tlOiMxODE4MTg7c3Ryb2tlLXdpZHRoOjE7Ii8+PGxpbmUgc3R5bGU9InN0cm9rZTojMTgxODE4O3N0cm9rZS13aWR0aDoxOyIgeDE9IjYxLjUiIHgyPSI0MTUiIHkxPSIxNjguNzk2OSIgeTI9IjE2OC43OTY5Ii8+PHRleHQgZmlsbD0iIzAwMDAwMCIgZm9udC1mYW1pbHk9InNhbnMtc2VyaWYiIGZvbnQtc2l6ZT0iMTMiIGZvbnQtd2VpZ2h0PSJib2xkIiBsZW5ndGhBZGp1c3Q9InNwYWNpbmciIHRleHRMZW5ndGg9IjE5LjUiIHg9IjY4LjUiIHk9IjE2NS4xNzE5Ij5bMV08L3RleHQ+PHRleHQgZmlsbD0iIzAwMDAwMCIgZm9udC1mYW1pbHk9InNhbnMtc2VyaWYiIGZvbnQtc2l6ZT0iMTMiIGxlbmd0aEFkanVzdD0ic3BhY2luZyIgdGV4dExlbmd0aD0iMjA4IiB4PSI5MiIgeT0iMTY1LjE3MTkiPlkmIzIzNDt1IGMmIzc4NDc7dSAmIzI3MzsmIzc4NjM7dCBzJiMyMjY7biAoUE9TVCAvYm9va2luZ3MpPC90ZXh0PjwvZz48ZyBjbGFzcz0ibWVzc2FnZSIgZGF0YS1wYXJ0aWNpcGFudC0xPSJCQ29udHJvbGxlciIgZGF0YS1wYXJ0aWNpcGFudC0yPSJCU2VydmljZSI+PHBvbHlnb24gZmlsbD0iIzE4MTgxOCIgcG9pbnRzPSI2MzUuNSwxOTIuNzEwOSw2NDUuNSwxOTYuNzEwOSw2MzUuNSwyMDAuNzEwOSw2MzkuNSwxOTYuNzEwOSIgc3R5bGU9InN0cm9rZTojMTgxODE4O3N0cm9rZS13aWR0aDoxOyIvPjxsaW5lIHN0eWxlPSJzdHJva2U6IzE4MTgxODtzdHJva2Utd2lkdGg6MTsiIHgxPSI0MzEiIHgyPSI2NDEuNSIgeTE9IjE5Ni43MTA5IiB5Mj0iMTk2LjcxMDkiLz48dGV4dCBmaWxsPSIjMDAwMDAwIiBmb250LWZhbWlseT0ic2Fucy1zZXJpZiIgZm9udC1zaXplPSIxMyIgZm9udC13ZWlnaHQ9ImJvbGQiIGxlbmd0aEFkanVzdD0ic3BhY2luZyIgdGV4dExlbmd0aD0iMTkuNSIgeD0iNDM4IiB5PSIxOTMuMDg1OSI+WzJdPC90ZXh0Pjx0ZXh0IGZpbGw9IiMwMDAwMDAiIGZvbnQtZmFtaWx5PSJzYW5zLXNlcmlmIiBmb250LXNpemU9IjEzIiBsZW5ndGhBZGp1c3Q9InNwYWNpbmciIHRleHRMZW5ndGg9IjE2Mi41IiB4PSI0NjEuNSIgeT0iMTkzLjA4NTkiPmNyZWF0ZUJvb2tpbmcoYm9va2luZ0R0byk8L3RleHQ+PC9nPjxwYXRoIGQ9Ik02NjIsMjA5LjcxMDkgTDY2MiwyMzIuNzEwOSBMODcxLDIzMi43MTA5IEw4NzEsMjE5LjcxMDkgTDg2MSwyMDkuNzEwOSBMNjYyLDIwOS43MTA5IiBmaWxsPSIjRkVGRkREIiBzdHlsZT0ic3Ryb2tlOiMxODE4MTg7c3Ryb2tlLXdpZHRoOjAuNTsiLz48cGF0aCBkPSJNODYxLDIwOS43MTA5IEw4NjEsMjE5LjcxMDkgTDg3MSwyMTkuNzEwOSBMODYxLDIwOS43MTA5IiBmaWxsPSIjRkVGRkREIiBzdHlsZT0ic3Ryb2tlOiMxODE4MTg7c3Ryb2tlLXdpZHRoOjAuNTsiLz48dGV4dCBmaWxsPSIjMDAwMDAwIiBmb250LWZhbWlseT0ic2Fucy1zZXJpZiIgZm9udC1zaXplPSIxMyIgbGVuZ3RoQWRqdXN0PSJzcGFjaW5nIiB0ZXh0TGVuZ3RoPSIxODguNSIgeD0iNjY4IiB5PSIyMjciPkImIzc4NTU7dCAmIzI3MzsmIzc4NDc7dSB4JiM3OTE3OyBsJiMyNTM7IGxvZ2ljIG5naGkmIzc4Nzk7cCB2JiM3OTA5OzwvdGV4dD48ZyBjbGFzcz0ibWVzc2FnZSIgZGF0YS1wYXJ0aWNpcGFudC0xPSJCU2VydmljZSIgZGF0YS1wYXJ0aWNpcGFudC0yPSJGU2VydmljZSI+PHBvbHlnb24gZmlsbD0iIzE4MTgxOCIgcG9pbnRzPSI4OTYsMjU0LjUzOTEsOTA2LDI1OC41MzkxLDg5NiwyNjIuNTM5MSw5MDAsMjU4LjUzOTEiIHN0eWxlPSJzdHJva2U6IzE4MTgxODtzdHJva2Utd2lkdGg6MTsiLz48bGluZSBzdHlsZT0ic3Ryb2tlOiMxODE4MTg7c3Ryb2tlLXdpZHRoOjE7IiB4MT0iNjU3LjUiIHgyPSI5MDIiIHkxPSIyNTguNTM5MSIgeTI9IjI1OC41MzkxIi8+PHRleHQgZmlsbD0iIzAwMDAwMCIgZm9udC1mYW1pbHk9InNhbnMtc2VyaWYiIGZvbnQtc2l6ZT0iMTMiIGZvbnQtd2VpZ2h0PSJib2xkIiBsZW5ndGhBZGp1c3Q9InNwYWNpbmciIHRleHRMZW5ndGg9IjE5LjUiIHg9IjY2NC41IiB5PSIyNTQuOTE0MSI+WzNdPC90ZXh0Pjx0ZXh0IGZpbGw9IiMwMDAwMDAiIGZvbnQtZmFtaWx5PSJzYW5zLXNlcmlmIiBmb250LXNpemU9IjEzIiBsZW5ndGhBZGp1c3Q9InNwYWNpbmciIHRleHRMZW5ndGg9IjIwOCIgeD0iNjg4IiB5PSIyNTQuOTE0MSI+Y2hlY2tBdmFpbGFiaWxpdHkoZmllbGRJZCwgdGltZSk8L3RleHQ+PC9nPjxnIGNsYXNzPSJtZXNzYWdlIiBkYXRhLXBhcnRpY2lwYW50LTE9IkZTZXJ2aWNlIiBkYXRhLXBhcnRpY2lwYW50LTI9IkJTZXJ2aWNlIj48cG9seWdvbiBmaWxsPSIjMTgxODE4IiBwb2ludHM9IjY2OC41LDI4Mi40NTMxLDY1OC41LDI4Ni40NTMxLDY2OC41LDI5MC40NTMxLDY2NC41LDI4Ni40NTMxIiBzdHlsZT0ic3Ryb2tlOiMxODE4MTg7c3Ryb2tlLXdpZHRoOjE7Ii8+PGxpbmUgc3R5bGU9InN0cm9rZTojMTgxODE4O3N0cm9rZS13aWR0aDoxO3N0cm9rZS1kYXNoYXJyYXk6Mi4wLDIuMDsiIHgxPSI2NjIuNSIgeDI9IjkxMiIgeTE9IjI4Ni40NTMxIiB5Mj0iMjg2LjQ1MzEiLz48dGV4dCBmaWxsPSIjMDAwMDAwIiBmb250LWZhbWlseT0ic2Fucy1zZXJpZiIgZm9udC1zaXplPSIxMyIgZm9udC13ZWlnaHQ9ImJvbGQiIGxlbmd0aEFkanVzdD0ic3BhY2luZyIgdGV4dExlbmd0aD0iMTkuNSIgeD0iNjc0LjUiIHk9IjI4Mi44MjgxIj5bNF08L3RleHQ+PHRleHQgZmlsbD0iIzAwMDAwMCIgZm9udC1mYW1pbHk9InNhbnMtc2VyaWYiIGZvbnQtc2l6ZT0iMTMiIGxlbmd0aEFkanVzdD0ic3BhY2luZyIgdGV4dExlbmd0aD0iMTMwIiB4PSI2OTgiIHk9IjI4Mi44MjgxIj4odHJ1ZSkgUyYjMjI2O24gYyYjMjQyO24gdHImIzc4ODk7bmc8L3RleHQ+PC9nPjxnIGNsYXNzPSJtZXNzYWdlIiBkYXRhLXBhcnRpY2lwYW50LTE9IkJTZXJ2aWNlIiBkYXRhLXBhcnRpY2lwYW50LTI9IkRCIj48cG9seWdvbiBmaWxsPSIjMTgxODE4IiBwb2ludHM9IjEzMDQuNSwzMTAuMzY3MiwxMzE0LjUsMzE0LjM2NzIsMTMwNC41LDMxOC4zNjcyLDEzMDguNSwzMTQuMzY3MiIgc3R5bGU9InN0cm9rZTojMTgxODE4O3N0cm9rZS13aWR0aDoxOyIvPjxsaW5lIHN0eWxlPSJzdHJva2U6IzE4MTgxODtzdHJva2Utd2lkdGg6MTsiIHgxPSI2NTcuNSIgeDI9IjEzMTAuNSIgeTE9IjMxNC4zNjcyIiB5Mj0iMzE0LjM2NzIiLz48dGV4dCBmaWxsPSIjMDAwMDAwIiBmb250LWZhbWlseT0ic2Fucy1zZXJpZiIgZm9udC1zaXplPSIxMyIgZm9udC13ZWlnaHQ9ImJvbGQiIGxlbmd0aEFkanVzdD0ic3BhY2luZyIgdGV4dExlbmd0aD0iMTkuNSIgeD0iNjY0LjUiIHk9IjMxMC43NDIyIj5bNV08L3RleHQ+PHRleHQgZmlsbD0iIzAwMDAwMCIgZm9udC1mYW1pbHk9InNhbnMtc2VyaWYiIGZvbnQtc2l6ZT0iMTMiIGxlbmd0aEFkanVzdD0ic3BhY2luZyIgdGV4dExlbmd0aD0iMTk1IiB4PSI2ODgiIHk9IjMxMC43NDIyIj5UJiM3ODQxO28gQm9va2luZyAoc3RhdHVzPSJQRU5ESU5HIik8L3RleHQ+PC9nPjxnIGNsYXNzPSJtZXNzYWdlIiBkYXRhLXBhcnRpY2lwYW50LTE9IkRCIiBkYXRhLXBhcnRpY2lwYW50LTI9IkJTZXJ2aWNlIj48cG9seWdvbiBmaWxsPSIjMTgxODE4IiBwb2ludHM9IjY2OC41LDMzOC4yODEzLDY1OC41LDM0Mi4yODEzLDY2OC41LDM0Ni4yODEzLDY2NC41LDM0Mi4yODEzIiBzdHlsZT0ic3Ryb2tlOiMxODE4MTg7c3Ryb2tlLXdpZHRoOjE7Ii8+PGxpbmUgc3R5bGU9InN0cm9rZTojMTgxODE4O3N0cm9rZS13aWR0aDoxO3N0cm9rZS1kYXNoYXJyYXk6Mi4wLDIuMDsiIHgxPSI2NjIuNSIgeDI9IjEzMjAuNSIgeTE9IjM0Mi4yODEzIiB5Mj0iMzQyLjI4MTMiLz48dGV4dCBmaWxsPSIjMDAwMDAwIiBmb250LWZhbWlseT0ic2Fucy1zZXJpZiIgZm9udC1zaXplPSIxMyIgZm9udC13ZWlnaHQ9ImJvbGQiIGxlbmd0aEFkanVzdD0ic3BhY2luZyIgdGV4dExlbmd0aD0iMTkuNSIgeD0iNjc0LjUiIHk9IjMzOC42NTYzIj5bNl08L3RleHQ+PHRleHQgZmlsbD0iIzAwMDAwMCIgZm9udC1mYW1pbHk9InNhbnMtc2VyaWYiIGZvbnQtc2l6ZT0iMTMiIGxlbmd0aEFkanVzdD0ic3BhY2luZyIgdGV4dExlbmd0aD0iMTQzIiB4PSI2OTgiIHk9IjMzOC42NTYzIj5ib29raW5nRW50aXR5ICgmIzI3MzsmIzIyNzsgbCYjNDMyO3UpPC90ZXh0PjwvZz48ZyBjbGFzcz0ibWVzc2FnZSIgZGF0YS1wYXJ0aWNpcGFudC0xPSJCU2VydmljZSIgZGF0YS1wYXJ0aWNpcGFudC0yPSJQU2VydmljZSI+PHBvbHlnb24gZmlsbD0iIzE4MTgxOCIgcG9pbnRzPSIxMDE4LDM2Ni4xOTUzLDEwMjgsMzcwLjE5NTMsMTAxOCwzNzQuMTk1MywxMDIyLDM3MC4xOTUzIiBzdHlsZT0ic3Ryb2tlOiMxODE4MTg7c3Ryb2tlLXdpZHRoOjE7Ii8+PGxpbmUgc3R5bGU9InN0cm9rZTojMTgxODE4O3N0cm9rZS13aWR0aDoxOyIgeDE9IjY1Ny41IiB4Mj0iMTAyNCIgeTE9IjM3MC4xOTUzIiB5Mj0iMzcwLjE5NTMiLz48dGV4dCBmaWxsPSIjMDAwMDAwIiBmb250LWZhbWlseT0ic2Fucy1zZXJpZiIgZm9udC1zaXplPSIxMyIgZm9udC13ZWlnaHQ9ImJvbGQiIGxlbmd0aEFkanVzdD0ic3BhY2luZyIgdGV4dExlbmd0aD0iMTkuNSIgeD0iNjY0LjUiIHk9IjM2Ni41NzAzIj5bN108L3RleHQ+PHRleHQgZmlsbD0iIzAwMDAwMCIgZm9udC1mYW1pbHk9InNhbnMtc2VyaWYiIGZvbnQtc2l6ZT0iMTMiIGxlbmd0aEFkanVzdD0ic3BhY2luZyIgdGV4dExlbmd0aD0iMTk1IiB4PSI2ODgiIHk9IjM2Ni41NzAzIj5pbml0aWF0ZVBheW1lbnQoYm9va2luZ0VudGl0eSk8L3RleHQ+PC9nPjxnIGNsYXNzPSJtZXNzYWdlIiBkYXRhLXBhcnRpY2lwYW50LTE9IlBTZXJ2aWNlIiBkYXRhLXBhcnRpY2lwYW50LTI9IlBheW1lbnRHYXRld2F5Ij48cG9seWdvbiBmaWxsPSIjMTgxODE4IiBwb2ludHM9IjE0MjYsMzk0LjEwOTQsMTQzNiwzOTguMTA5NCwxNDI2LDQwMi4xMDk0LDE0MzAsMzk4LjEwOTQiIHN0eWxlPSJzdHJva2U6IzE4MTgxODtzdHJva2Utd2lkdGg6MTsiLz48bGluZSBzdHlsZT0ic3Ryb2tlOiMxODE4MTg7c3Ryb2tlLXdpZHRoOjE7IiB4MT0iMTA0MCIgeDI9IjE0MzIiIHkxPSIzOTguMTA5NCIgeTI9IjM5OC4xMDk0Ii8+PHRleHQgZmlsbD0iIzAwMDAwMCIgZm9udC1mYW1pbHk9InNhbnMtc2VyaWYiIGZvbnQtc2l6ZT0iMTMiIGZvbnQtd2VpZ2h0PSJib2xkIiBsZW5ndGhBZGp1c3Q9InNwYWNpbmciIHRleHRMZW5ndGg9IjE5LjUiIHg9IjEwNDciIHk9IjM5NC40ODQ0Ij5bOF08L3RleHQ+PHRleHQgZmlsbD0iIzAwMDAwMCIgZm9udC1mYW1pbHk9InNhbnMtc2VyaWYiIGZvbnQtc2l6ZT0iMTMiIGxlbmd0aEFkanVzdD0ic3BhY2luZyIgdGV4dExlbmd0aD0iMjA4IiB4PSIxMDcwLjUiIHk9IjM5NC40ODQ0Ij5ZJiMyMzQ7dSBjJiM3ODQ3O3UgdCYjNzg0MTtvIGdpYW8gZCYjNzg4MztjaCB0aGFuaCB0byYjMjI1O248L3RleHQ+PC9nPjxnIGNsYXNzPSJtZXNzYWdlIiBkYXRhLXBhcnRpY2lwYW50LTE9IlBheW1lbnRHYXRld2F5IiBkYXRhLXBhcnRpY2lwYW50LTI9IlBTZXJ2aWNlIj48cG9seWdvbiBmaWxsPSIjMTgxODE4IiBwb2ludHM9IjEwNTEsNDIyLjAyMzQsMTA0MSw0MjYuMDIzNCwxMDUxLDQzMC4wMjM0LDEwNDcsNDI2LjAyMzQiIHN0eWxlPSJzdHJva2U6IzE4MTgxODtzdHJva2Utd2lkdGg6MTsiLz48bGluZSBzdHlsZT0ic3Ryb2tlOiMxODE4MTg7c3Ryb2tlLXdpZHRoOjE7c3Ryb2tlLWRhc2hhcnJheToyLjAsMi4wOyIgeDE9IjEwNDUiIHgyPSIxNDQyIiB5MT0iNDI2LjAyMzQiIHkyPSI0MjYuMDIzNCIvPjx0ZXh0IGZpbGw9IiMwMDAwMDAiIGZvbnQtZmFtaWx5PSJzYW5zLXNlcmlmIiBmb250LXNpemU9IjEzIiBmb250LXdlaWdodD0iYm9sZCIgbGVuZ3RoQWRqdXN0PSJzcGFjaW5nIiB0ZXh0TGVuZ3RoPSIxOS41IiB4PSIxMDU3IiB5PSI0MjIuMzk4NCI+WzldPC90ZXh0Pjx0ZXh0IGZpbGw9IiMwMDAwMDAiIGZvbnQtZmFtaWx5PSJzYW5zLXNlcmlmIiBmb250LXNpemU9IjEzIiBsZW5ndGhBZGp1c3Q9InNwYWNpbmciIHRleHRMZW5ndGg9IjY1IiB4PSIxMDgwLjUiIHk9IjQyMi4zOTg0Ij5wYXltZW50VXJsPC90ZXh0PjwvZz48ZyBjbGFzcz0ibWVzc2FnZSIgZGF0YS1wYXJ0aWNpcGFudC0xPSJQU2VydmljZSIgZGF0YS1wYXJ0aWNpcGFudC0yPSJCU2VydmljZSI+PHBvbHlnb24gZmlsbD0iIzE4MTgxOCIgcG9pbnRzPSI2NjguNSw0NDkuOTM3NSw2NTguNSw0NTMuOTM3NSw2NjguNSw0NTcuOTM3NSw2NjQuNSw0NTMuOTM3NSIgc3R5bGU9InN0cm9rZTojMTgxODE4O3N0cm9rZS13aWR0aDoxOyIvPjxsaW5lIHN0eWxlPSJzdHJva2U6IzE4MTgxODtzdHJva2Utd2lkdGg6MTtzdHJva2UtZGFzaGFycmF5OjIuMCwyLjA7IiB4MT0iNjYyLjUiIHgyPSIxMDM0IiB5MT0iNDUzLjkzNzUiIHkyPSI0NTMuOTM3NSIvPjx0ZXh0IGZpbGw9IiMwMDAwMDAiIGZvbnQtZmFtaWx5PSJzYW5zLXNlcmlmIiBmb250LXNpemU9IjEzIiBmb250LXdlaWdodD0iYm9sZCIgbGVuZ3RoQWRqdXN0PSJzcGFjaW5nIiB0ZXh0TGVuZ3RoPSIyNiIgeD0iNjc0LjUiIHk9IjQ1MC4zMTI1Ij5bMTBdPC90ZXh0Pjx0ZXh0IGZpbGw9IiMwMDAwMDAiIGZvbnQtZmFtaWx5PSJzYW5zLXNlcmlmIiBmb250LXNpemU9IjEzIiBsZW5ndGhBZGp1c3Q9InNwYWNpbmciIHRleHRMZW5ndGg9IjY1IiB4PSI3MDQuNSIgeT0iNDUwLjMxMjUiPnBheW1lbnRVcmw8L3RleHQ+PC9nPjxnIGNsYXNzPSJtZXNzYWdlIiBkYXRhLXBhcnRpY2lwYW50LTE9IkJTZXJ2aWNlIiBkYXRhLXBhcnRpY2lwYW50LTI9IkJDb250cm9sbGVyIj48cG9seWdvbiBmaWxsPSIjMTgxODE4IiBwb2ludHM9IjQ0Miw0NzcuODUxNiw0MzIsNDgxLjg1MTYsNDQyLDQ4NS44NTE2LDQzOCw0ODEuODUxNiIgc3R5bGU9InN0cm9rZTojMTgxODE4O3N0cm9rZS13aWR0aDoxOyIvPjxsaW5lIHN0eWxlPSJzdHJva2U6IzE4MTgxODtzdHJva2Utd2lkdGg6MTtzdHJva2UtZGFzaGFycmF5OjIuMCwyLjA7IiB4MT0iNDM2IiB4Mj0iNjUxLjUiIHkxPSI0ODEuODUxNiIgeTI9IjQ4MS44NTE2Ii8+PHRleHQgZmlsbD0iIzAwMDAwMCIgZm9udC1mYW1pbHk9InNhbnMtc2VyaWYiIGZvbnQtc2l6ZT0iMTMiIGZvbnQtd2VpZ2h0PSJib2xkIiBsZW5ndGhBZGp1c3Q9InNwYWNpbmciIHRleHRMZW5ndGg9IjI2IiB4PSI0NDgiIHk9IjQ3OC4yMjY2Ij5bMTFdPC90ZXh0Pjx0ZXh0IGZpbGw9IiMwMDAwMDAiIGZvbnQtZmFtaWx5PSJzYW5zLXNlcmlmIiBmb250LXNpemU9IjEzIiBsZW5ndGhBZGp1c3Q9InNwYWNpbmciIHRleHRMZW5ndGg9IjE2Mi41IiB4PSI0NzgiIHk9IjQ3OC4yMjY2Ij57IGJvb2tpbmdJZCwgcGF5bWVudFVybCB9PC90ZXh0PjwvZz48ZyBjbGFzcz0ibWVzc2FnZSIgZGF0YS1wYXJ0aWNpcGFudC0xPSJCQ29udHJvbGxlciIgZGF0YS1wYXJ0aWNpcGFudC0yPSJNZW1iZXIiPjxwb2x5Z29uIGZpbGw9IiMxODE4MTgiIHBvaW50cz0iNzIuNSw1MDUuNzY1Niw2Mi41LDUwOS43NjU2LDcyLjUsNTEzLjc2NTYsNjguNSw1MDkuNzY1NiIgc3R5bGU9InN0cm9rZTojMTgxODE4O3N0cm9rZS13aWR0aDoxOyIvPjxsaW5lIHN0eWxlPSJzdHJva2U6IzE4MTgxODtzdHJva2Utd2lkdGg6MTtzdHJva2UtZGFzaGFycmF5OjIuMCwyLjA7IiB4MT0iNjYuNSIgeDI9IjQyNSIgeTE9IjUwOS43NjU2IiB5Mj0iNTA5Ljc2NTYiLz48dGV4dCBmaWxsPSIjMDAwMDAwIiBmb250LWZhbWlseT0ic2Fucy1zZXJpZiIgZm9udC1zaXplPSIxMyIgZm9udC13ZWlnaHQ9ImJvbGQiIGxlbmd0aEFkanVzdD0ic3BhY2luZyIgdGV4dExlbmd0aD0iMjYiIHg9Ijc4LjUiIHk9IjUwNi4xNDA2Ij5bMTJdPC90ZXh0Pjx0ZXh0IGZpbGw9IiMwMDAwMDAiIGZvbnQtZmFtaWx5PSJzYW5zLXNlcmlmIiBmb250LXNpemU9IjEzIiBsZW5ndGhBZGp1c3Q9InNwYWNpbmciIHRleHRMZW5ndGg9IjMwNS41IiB4PSIxMDguNSIgeT0iNTA2LjE0MDYiPjIwMSBDcmVhdGVkIChDaHV5JiM3ODc1O24gaCYjNDMyOyYjNzg5OTtuZyAmIzI3MzsmIzc4NzE7biB0cmFuZyB0aGFuaCB0byYjMjI1O24pPC90ZXh0PjwvZz48dGV4dCBmaWxsPSIjMDAwMDAwIiBmb250LWZhbWlseT0ic2Fucy1zZXJpZiIgZm9udC1zaXplPSIxMSIgbGVuZ3RoQWRqdXN0PSJzcGFjaW5nIiB0ZXh0TGVuZ3RoPSI0MjMuNSIgeD0iNzYyLjUiIHk9IjU0OS4xNjQxIj5WJiMyMjQ7aSBwaCYjMjUwO3Qgc2F1OiBOZyYjNDMyOyYjNzkwMTtpIGQmIzI0OTtuZyB0aGFuaCB0byYjMjI1O24gdGgmIzIyNDtuaCBjJiMyNDQ7bmcgdHImIzIzNDtuIHRyYW5nIGMmIzc5MTE7YSBjJiM3ODkzO25nIHRoYW5oIHRvJiMyMjU7bjwvdGV4dD48cGF0aCBkPSJNNTgzLDU3MS41MzkxIEw5NzIuNSw1NzEuNTM5MSBMOTcyLjUsNTc3LjQ1MzEgTDk2Mi41LDU4Ny40NTMxIEw1ODMsNTg3LjQ1MzEgTDU4Myw1NzEuNTM5MSIgZmlsbD0iI0VFRUVFRSIgc3R5bGU9InN0cm9rZTojMDAwMDAwO3N0cm9rZS13aWR0aDoxLjU7Ii8+PHJlY3QgZmlsbD0ibm9uZSIgaGVpZ2h0PSI0NzMuNTM5MSIgc3R5bGU9InN0cm9rZTojMDAwMDAwO3N0cm9rZS13aWR0aDoxLjU7IiB3aWR0aD0iMTM1OS41IiB4PSI1ODMiIHk9IjU3MS41MzkxIi8+PHRleHQgZmlsbD0iIzAwMDAwMCIgZm9udC1mYW1pbHk9InNhbnMtc2VyaWYiIGZvbnQtc2l6ZT0iMTMiIGZvbnQtd2VpZ2h0PSJib2xkIiBsZW5ndGhBZGp1c3Q9InNwYWNpbmciIHRleHRMZW5ndGg9IjM0NC41IiB4PSI1OTgiIHk9IjU4NC44MjgxIj5MdSYjNzg5MTtuZyBIJiM3ODc5OyB0aCYjNzg4OTtuZyBYJiMyMjU7YyBuaCYjNzg1MztuIFRoYW5oIHRvJiMyMjU7biAoV2ViaG9vay9DYWxsYmFjayk8L3RleHQ+PGcgY2xhc3M9Im1lc3NhZ2UiIGRhdGEtcGFydGljaXBhbnQtMT0iUGF5bWVudEdhdGV3YXkiIGRhdGEtcGFydGljaXBhbnQtMj0iUENvbnRyb2xsZXIiPjxwb2x5Z29uIGZpbGw9IiMxODE4MTgiIHBvaW50cz0iMTg3MCw2MDMuMzY3MiwxODgwLDYwNy4zNjcyLDE4NzAsNjExLjM2NzIsMTg3NCw2MDcuMzY3MiIgc3R5bGU9InN0cm9rZTojMTgxODE4O3N0cm9rZS13aWR0aDoxOyIvPjxsaW5lIHN0eWxlPSJzdHJva2U6IzE4MTgxODtzdHJva2Utd2lkdGg6MTsiIHgxPSIxNDQzIiB4Mj0iMTg3NiIgeTE9IjYwNy4zNjcyIiB5Mj0iNjA3LjM2NzIiLz48dGV4dCBmaWxsPSIjMDAwMDAwIiBmb250LWZhbWlseT0ic2Fucy1zZXJpZiIgZm9udC1zaXplPSIxMyIgZm9udC13ZWlnaHQ9ImJvbGQiIGxlbmd0aEFkanVzdD0ic3BhY2luZyIgdGV4dExlbmd0aD0iMjYiIHg9IjE0NTAiIHk9IjYwMy43NDIyIj5bMTNdPC90ZXh0Pjx0ZXh0IGZpbGw9IiMwMDAwMDAiIGZvbnQtZmFtaWx5PSJzYW5zLXNlcmlmIiBmb250LXNpemU9IjEzIiBsZW5ndGhBZGp1c3Q9InNwYWNpbmciIHRleHRMZW5ndGg9IjM5MCIgeD0iMTQ4MCIgeT0iNjAzLjc0MjIiPkcmIzc5MTc7aSB0aCYjMjQ0O25nIGImIzIyNTtvIHRoYW5oIHRvJiMyMjU7biB0aCYjMjI0O25oIGMmIzI0NDtuZyAoUE9TVCAvcGF5bWVudHMvd2ViaG9vayk8L3RleHQ+PC9nPjxnIGNsYXNzPSJtZXNzYWdlIiBkYXRhLXBhcnRpY2lwYW50LTE9IlBDb250cm9sbGVyIiBkYXRhLXBhcnRpY2lwYW50LTI9IlBTZXJ2aWNlIj48cG9seWdvbiBmaWxsPSIjMTgxODE4IiBwb2ludHM9IjEwNTEsNjMxLjI4MTMsMTA0MSw2MzUuMjgxMywxMDUxLDYzOS4yODEzLDEwNDcsNjM1LjI4MTMiIHN0eWxlPSJzdHJva2U6IzE4MTgxODtzdHJva2Utd2lkdGg6MTsiLz48bGluZSBzdHlsZT0ic3Ryb2tlOiMxODE4MTg7c3Ryb2tlLXdpZHRoOjE7IiB4MT0iMTA0NSIgeDI9IjE4ODEiIHkxPSI2MzUuMjgxMyIgeTI9IjYzNS4yODEzIi8+PHRleHQgZmlsbD0iIzAwMDAwMCIgZm9udC1mYW1pbHk9InNhbnMtc2VyaWYiIGZvbnQtc2l6ZT0iMTMiIGZvbnQtd2VpZ2h0PSJib2xkIiBsZW5ndGhBZGp1c3Q9InNwYWNpbmciIHRleHRMZW5ndGg9IjI2IiB4PSIxMDU3IiB5PSI2MzEuNjU2MyI+WzE0XTwvdGV4dD48dGV4dCBmaWxsPSIjMDAwMDAwIiBmb250LWZhbWlseT0ic2Fucy1zZXJpZiIgZm9udC1zaXplPSIxMyIgbGVuZ3RoQWRqdXN0PSJzcGFjaW5nIiB0ZXh0TGVuZ3RoPSIyMzQiIHg9IjEwODciIHk9IjYzMS42NTYzIj5oYW5kbGVTdWNjZXNzZnVsUGF5bWVudChwYXltZW50RGF0YSk8L3RleHQ+PC9nPjxnIGNsYXNzPSJtZXNzYWdlIiBkYXRhLXBhcnRpY2lwYW50LTE9IlBTZXJ2aWNlIiBkYXRhLXBhcnRpY2lwYW50LTI9IkRCIj48cG9seWdvbiBmaWxsPSIjMTgxODE4IiBwb2ludHM9IjEzMDQuNSw2NTkuMTk1MywxMzE0LjUsNjYzLjE5NTMsMTMwNC41LDY2Ny4xOTUzLDEzMDguNSw2NjMuMTk1MyIgc3R5bGU9InN0cm9rZTojMTgxODE4O3N0cm9rZS13aWR0aDoxOyIvPjxsaW5lIHN0eWxlPSJzdHJva2U6IzE4MTgxODtzdHJva2Utd2lkdGg6MTsiIHgxPSIxMDQwIiB4Mj0iMTMxMC41IiB5MT0iNjYzLjE5NTMiIHkyPSI2NjMuMTk1MyIvPjx0ZXh0IGZpbGw9IiMwMDAwMDAiIGZvbnQtZmFtaWx5PSJzYW5zLXNlcmlmIiBmb250LXNpemU9IjEzIiBmb250LXdlaWdodD0iYm9sZCIgbGVuZ3RoQWRqdXN0PSJzcGFjaW5nIiB0ZXh0TGVuZ3RoPSIyNiIgeD0iMTA0NyIgeT0iNjU5LjU3MDMiPlsxNV08L3RleHQ+PHRleHQgZmlsbD0iIzAwMDAwMCIgZm9udC1mYW1pbHk9InNhbnMtc2VyaWYiIGZvbnQtc2l6ZT0iMTMiIGxlbmd0aEFkanVzdD0ic3BhY2luZyIgdGV4dExlbmd0aD0iMjI3LjUiIHg9IjEwNzciIHk9IjY1OS41NzAzIj5DJiM3ODUzO3AgbmgmIzc4NTM7dCBQYXltZW50IChzdGF0dXM9IlNVQ0NFU1MiKTwvdGV4dD48L2c+PGcgY2xhc3M9Im1lc3NhZ2UiIGRhdGEtcGFydGljaXBhbnQtMT0iREIiIGRhdGEtcGFydGljaXBhbnQtMj0iUFNlcnZpY2UiPjxwb2x5Z29uIGZpbGw9IiMxODE4MTgiIHBvaW50cz0iMTA1MSw2ODcuMTA5NCwxMDQxLDY5MS4xMDk0LDEwNTEsNjk1LjEwOTQsMTA0Nyw2OTEuMTA5NCIgc3R5bGU9InN0cm9rZTojMTgxODE4O3N0cm9rZS13aWR0aDoxOyIvPjxsaW5lIHN0eWxlPSJzdHJva2U6IzE4MTgxODtzdHJva2Utd2lkdGg6MTtzdHJva2UtZGFzaGFycmF5OjIuMCwyLjA7IiB4MT0iMTA0NSIgeDI9IjEzMjAuNSIgeTE9IjY5MS4xMDk0IiB5Mj0iNjkxLjEwOTQiLz48dGV4dCBmaWxsPSIjMDAwMDAwIiBmb250LWZhbWlseT0ic2Fucy1zZXJpZiIgZm9udC1zaXplPSIxMyIgZm9udC13ZWlnaHQ9ImJvbGQiIGxlbmd0aEFkanVzdD0ic3BhY2luZyIgdGV4dExlbmd0aD0iMjYiIHg9IjEwNTciIHk9IjY4Ny40ODQ0Ij5bMTZdPC90ZXh0Pjx0ZXh0IGZpbGw9IiMwMDAwMDAiIGZvbnQtZmFtaWx5PSJzYW5zLXNlcmlmIiBmb250LXNpemU9IjEzIiBsZW5ndGhBZGp1c3Q9InNwYWNpbmciIHRleHRMZW5ndGg9IjE3NS41IiB4PSIxMDg3IiB5PSI2ODcuNDg0NCI+cGF5bWVudEVudGl0eSAoJiMyNzM7JiMyMjc7IGMmIzc4NTM7cCBuaCYjNzg1Mzt0KTwvdGV4dD48L2c+PGcgY2xhc3M9Im1lc3NhZ2UiIGRhdGEtcGFydGljaXBhbnQtMT0iUFNlcnZpY2UiIGRhdGEtcGFydGljaXBhbnQtMj0iQlNlcnZpY2UiPjxwb2x5Z29uIGZpbGw9IiMxODE4MTgiIHBvaW50cz0iNjY4LjUsNzE1LjAyMzQsNjU4LjUsNzE5LjAyMzQsNjY4LjUsNzIzLjAyMzQsNjY0LjUsNzE5LjAyMzQiIHN0eWxlPSJzdHJva2U6IzE4MTgxODtzdHJva2Utd2lkdGg6MTsiLz48bGluZSBzdHlsZT0ic3Ryb2tlOiMxODE4MTg7c3Ryb2tlLXdpZHRoOjE7IiB4MT0iNjYyLjUiIHgyPSIxMDI5IiB5MT0iNzE5LjAyMzQiIHkyPSI3MTkuMDIzNCIvPjx0ZXh0IGZpbGw9IiMwMDAwMDAiIGZvbnQtZmFtaWx5PSJzYW5zLXNlcmlmIiBmb250LXNpemU9IjEzIiBmb250LXdlaWdodD0iYm9sZCIgbGVuZ3RoQWRqdXN0PSJzcGFjaW5nIiB0ZXh0TGVuZ3RoPSIyNiIgeD0iNjc0LjUiIHk9IjcxNS4zOTg0Ij5bMTddPC90ZXh0Pjx0ZXh0IGZpbGw9IiMwMDAwMDAiIGZvbnQtZmFtaWx5PSJzYW5zLXNlcmlmIiBmb250LXNpemU9IjEzIiBsZW5ndGhBZGp1c3Q9InNwYWNpbmciIHRleHRMZW5ndGg9IjE2Mi41IiB4PSI3MDQuNSIgeT0iNzE1LjM5ODQiPmNvbmZpcm1Cb29raW5nKGJvb2tpbmdJZCk8L3RleHQ+PC9nPjxnIGNsYXNzPSJtZXNzYWdlIiBkYXRhLXBhcnRpY2lwYW50LTE9IkJTZXJ2aWNlIiBkYXRhLXBhcnRpY2lwYW50LTI9IkRCIj48cG9seWdvbiBmaWxsPSIjMTgxODE4IiBwb2ludHM9IjEzMDQuNSw3NDIuOTM3NSwxMzE0LjUsNzQ2LjkzNzUsMTMwNC41LDc1MC45Mzc1LDEzMDguNSw3NDYuOTM3NSIgc3R5bGU9InN0cm9rZTojMTgxODE4O3N0cm9rZS13aWR0aDoxOyIvPjxsaW5lIHN0eWxlPSJzdHJva2U6IzE4MTgxODtzdHJva2Utd2lkdGg6MTsiIHgxPSI2NTcuNSIgeDI9IjEzMTAuNSIgeTE9Ijc0Ni45Mzc1IiB5Mj0iNzQ2LjkzNzUiLz48dGV4dCBmaWxsPSIjMDAwMDAwIiBmb250LWZhbWlseT0ic2Fucy1zZXJpZiIgZm9udC1zaXplPSIxMyIgZm9udC13ZWlnaHQ9ImJvbGQiIGxlbmd0aEFkanVzdD0ic3BhY2luZyIgdGV4dExlbmd0aD0iMjYiIHg9IjY2NC41IiB5PSI3NDMuMzEyNSI+WzE4XTwvdGV4dD48dGV4dCBmaWxsPSIjMDAwMDAwIiBmb250LWZhbWlseT0ic2Fucy1zZXJpZiIgZm9udC1zaXplPSIxMyIgbGVuZ3RoQWRqdXN0PSJzcGFjaW5nIiB0ZXh0TGVuZ3RoPSIxNjkiIHg9IjY5NC41IiB5PSI3NDMuMzEyNSI+VCYjMjM2O20gQm9va2luZyB0aGVvIGJvb2tpbmdJZDwvdGV4dD48L2c+PGcgY2xhc3M9Im1lc3NhZ2UiIGRhdGEtcGFydGljaXBhbnQtMT0iREIiIGRhdGEtcGFydGljaXBhbnQtMj0iQlNlcnZpY2UiPjxwb2x5Z29uIGZpbGw9IiMxODE4MTgiIHBvaW50cz0iNjY4LjUsNzcwLjg1MTYsNjU4LjUsNzc0Ljg1MTYsNjY4LjUsNzc4Ljg1MTYsNjY0LjUsNzc0Ljg1MTYiIHN0eWxlPSJzdHJva2U6IzE4MTgxODtzdHJva2Utd2lkdGg6MTsiLz48bGluZSBzdHlsZT0ic3Ryb2tlOiMxODE4MTg7c3Ryb2tlLXdpZHRoOjE7c3Ryb2tlLWRhc2hhcnJheToyLjAsMi4wOyIgeDE9IjY2Mi41IiB4Mj0iMTMyMC41IiB5MT0iNzc0Ljg1MTYiIHkyPSI3NzQuODUxNiIvPjx0ZXh0IGZpbGw9IiMwMDAwMDAiIGZvbnQtZmFtaWx5PSJzYW5zLXNlcmlmIiBmb250LXNpemU9IjEzIiBmb250LXdlaWdodD0iYm9sZCIgbGVuZ3RoQWRqdXN0PSJzcGFjaW5nIiB0ZXh0TGVuZ3RoPSIyNiIgeD0iNjc0LjUiIHk9Ijc3MS4yMjY2Ij5bMTldPC90ZXh0Pjx0ZXh0IGZpbGw9IiMwMDAwMDAiIGZvbnQtZmFtaWx5PSJzYW5zLXNlcmlmIiBmb250LXNpemU9IjEzIiBsZW5ndGhBZGp1c3Q9InNwYWNpbmciIHRleHRMZW5ndGg9IjEwNCIgeD0iNzA0LjUiIHk9Ijc3MS4yMjY2Ij5ib29raW5nVG9Db25maXJtPC90ZXh0PjwvZz48ZyBjbGFzcz0ibWVzc2FnZSIgZGF0YS1wYXJ0aWNpcGFudC0xPSJCU2VydmljZSIgZGF0YS1wYXJ0aWNpcGFudC0yPSJCU2VydmljZSI+PGxpbmUgc3R5bGU9InN0cm9rZTojMTgxODE4O3N0cm9rZS13aWR0aDoxOyIgeDE9IjY1Ny41IiB4Mj0iNjk5LjUiIHkxPSI4MDIuNzY1NiIgeTI9IjgwMi43NjU2Ii8+PGxpbmUgc3R5bGU9InN0cm9rZTojMTgxODE4O3N0cm9rZS13aWR0aDoxOyIgeDE9IjY5OS41IiB4Mj0iNjk5LjUiIHkxPSI4MDIuNzY1NiIgeTI9IjgxNS43NjU2Ii8+PGxpbmUgc3R5bGU9InN0cm9rZTojMTgxODE4O3N0cm9rZS13aWR0aDoxOyIgeDE9IjY1OC41IiB4Mj0iNjk5LjUiIHkxPSI4MTUuNzY1NiIgeTI9IjgxNS43NjU2Ii8+PHBvbHlnb24gZmlsbD0iIzE4MTgxOCIgcG9pbnRzPSI2NjguNSw4MTEuNzY1Niw2NTguNSw4MTUuNzY1Niw2NjguNSw4MTkuNzY1Niw2NjQuNSw4MTUuNzY1NiIgc3R5bGU9InN0cm9rZTojMTgxODE4O3N0cm9rZS13aWR0aDoxOyIvPjx0ZXh0IGZpbGw9IiMwMDAwMDAiIGZvbnQtZmFtaWx5PSJzYW5zLXNlcmlmIiBmb250LXNpemU9IjEzIiBmb250LXdlaWdodD0iYm9sZCIgbGVuZ3RoQWRqdXN0PSJzcGFjaW5nIiB0ZXh0TGVuZ3RoPSIyNiIgeD0iNjY0LjUiIHk9Ijc5OS4xNDA2Ij5bMjBdPC90ZXh0Pjx0ZXh0IGZpbGw9IiMwMDAwMDAiIGZvbnQtZmFtaWx5PSJzYW5zLXNlcmlmIiBmb250LXNpemU9IjEzIiBsZW5ndGhBZGp1c3Q9InNwYWNpbmciIHRleHRMZW5ndGg9IjE2OSIgeD0iNjk0LjUiIHk9Ijc5OS4xNDA2Ij5ib29raW5nVG9Db25maXJtLmNvbmZpcm0oKTwvdGV4dD48L2c+PHBhdGggZD0iTTY2Miw4MjguNzY1NiBMNjYyLDg2NS43NjU2IEw5MzYsODY1Ljc2NTYgTDkzNiw4MzguNzY1NiBMOTI2LDgyOC43NjU2IEw2NjIsODI4Ljc2NTYiIGZpbGw9IiNGRUZGREQiIHN0eWxlPSJzdHJva2U6IzE4MTgxODtzdHJva2Utd2lkdGg6MC41OyIvPjxwYXRoIGQ9Ik05MjYsODI4Ljc2NTYgTDkyNiw4MzguNzY1NiBMOTM2LDgzOC43NjU2IEw5MjYsODI4Ljc2NTYiIGZpbGw9IiNGRUZGREQiIHN0eWxlPSJzdHJva2U6IzE4MTgxODtzdHJva2Utd2lkdGg6MC41OyIvPjx0ZXh0IGZpbGw9IiMwMDAwMDAiIGZvbnQtZmFtaWx5PSJzYW5zLXNlcmlmIiBmb250LXNpemU9IjEzIiBsZW5ndGhBZGp1c3Q9InNwYWNpbmciIHRleHRMZW5ndGg9IjI0NyIgeD0iNjY4IiB5PSI4NDYuMDU0NyI+RyYjNzg4NTtpIHBoJiM0MzI7JiM0MTc7bmcgdGgmIzc5MTM7YyBjJiM3OTExO2EgUmljaCBEb21haW4gT2JqZWN0PC90ZXh0Pjx0ZXh0IGZpbGw9IiMwMDAwMDAiIGZvbnQtZmFtaWx5PSJzYW5zLXNlcmlmIiBmb250LXNpemU9IjEzIiBsZW5ndGhBZGp1c3Q9InNwYWNpbmciIHRleHRMZW5ndGg9IjI1My41IiB4PSI2NjgiIHk9Ijg1OS45Njg4Ij4mIzI3MzsmIzc4NzU7ICYjMjczOyYjMjQzO25nIGcmIzI0MztpIHYmIzIyNDsgdGgmIzc5MjE7YyB0aGkgbG9naWMgbmdoaSYjNzg3OTtwIHYmIzc5MDk7PC90ZXh0PjxnIGNsYXNzPSJtZXNzYWdlIiBkYXRhLXBhcnRpY2lwYW50LTE9IkJTZXJ2aWNlIiBkYXRhLXBhcnRpY2lwYW50LTI9IkRCIj48cG9seWdvbiBmaWxsPSIjMTgxODE4IiBwb2ludHM9IjEzMDkuNSw4ODcuNTA3OCwxMzE5LjUsODkxLjUwNzgsMTMwOS41LDg5NS41MDc4LDEzMTMuNSw4OTEuNTA3OCIgc3R5bGU9InN0cm9rZTojMTgxODE4O3N0cm9rZS13aWR0aDoxOyIvPjxsaW5lIHN0eWxlPSJzdHJva2U6IzE4MTgxODtzdHJva2Utd2lkdGg6MTsiIHgxPSI2NTcuNSIgeDI9IjEzMTUuNSIgeTE9Ijg5MS41MDc4IiB5Mj0iODkxLjUwNzgiLz48dGV4dCBmaWxsPSIjMDAwMDAwIiBmb250LWZhbWlseT0ic2Fucy1zZXJpZiIgZm9udC1zaXplPSIxMyIgZm9udC13ZWlnaHQ9ImJvbGQiIGxlbmd0aEFkanVzdD0ic3BhY2luZyIgdGV4dExlbmd0aD0iMjYiIHg9IjY2NC41IiB5PSI4ODcuODgyOCI+WzIxXTwvdGV4dD48dGV4dCBmaWxsPSIjMDAwMDAwIiBmb250LWZhbWlseT0ic2Fucy1zZXJpZiIgZm9udC1zaXplPSIxMyIgbGVuZ3RoQWRqdXN0PSJzcGFjaW5nIiB0ZXh0TGVuZ3RoPSIyNDAuNSIgeD0iNjk0LjUiIHk9Ijg4Ny44ODI4Ij5DJiM3ODUzO3AgbmgmIzc4NTM7dCBCb29raW5nIChzdGF0dXM9IkNPTkZJUk1FRCIpPC90ZXh0PjwvZz48ZyBjbGFzcz0ibWVzc2FnZSIgZGF0YS1wYXJ0aWNpcGFudC0xPSJCU2VydmljZSIgZGF0YS1wYXJ0aWNpcGFudC0yPSJOb3RpU2VydmljZSI+PHBvbHlnb24gZmlsbD0iIzE4MTgxOCIgcG9pbnRzPSIxMTY0LjUsOTE1LjQyMTksMTE3NC41LDkxOS40MjE5LDExNjQuNSw5MjMuNDIxOSwxMTY4LjUsOTE5LjQyMTkiIHN0eWxlPSJzdHJva2U6IzE4MTgxODtzdHJva2Utd2lkdGg6MTsiLz48bGluZSBzdHlsZT0ic3Ryb2tlOiMxODE4MTg7c3Ryb2tlLXdpZHRoOjE7IiB4MT0iNjU3LjUiIHgyPSIxMTcwLjUiIHkxPSI5MTkuNDIxOSIgeTI9IjkxOS40MjE5Ii8+PHRleHQgZmlsbD0iIzAwMDAwMCIgZm9udC1mYW1pbHk9InNhbnMtc2VyaWYiIGZvbnQtc2l6ZT0iMTMiIGZvbnQtd2VpZ2h0PSJib2xkIiBsZW5ndGhBZGp1c3Q9InNwYWNpbmciIHRleHRMZW5ndGg9IjI2IiB4PSI2NjQuNSIgeT0iOTE1Ljc5NjkiPlsyMl08L3RleHQ+PHRleHQgZmlsbD0iIzAwMDAwMCIgZm9udC1mYW1pbHk9InNhbnMtc2VyaWYiIGZvbnQtc2l6ZT0iMTMiIGxlbmd0aEFkanVzdD0ic3BhY2luZyIgdGV4dExlbmd0aD0iMjY2LjUiIHg9IjY5NC41IiB5PSI5MTUuNzk2OSI+c2VuZEJvb2tpbmdDb25maXJtYXRpb24oYm9va2luZ1RvQ29uZmlybSk8L3RleHQ+PC9nPjxwYXRoIGQ9Ik0xMTkxLDkzMi40MjE5IEwxMTkxLDk1NS40MjE5IEwxNDUyLDk1NS40MjE5IEwxNDUyLDk0Mi40MjE5IEwxNDQyLDkzMi40MjE5IEwxMTkxLDkzMi40MjE5IiBmaWxsPSIjRkVGRkREIiBzdHlsZT0ic3Ryb2tlOiMxODE4MTg7c3Ryb2tlLXdpZHRoOjAuNTsiLz48cGF0aCBkPSJNMTQ0Miw5MzIuNDIxOSBMMTQ0Miw5NDIuNDIxOSBMMTQ1Miw5NDIuNDIxOSBMMTQ0Miw5MzIuNDIxOSIgZmlsbD0iI0ZFRkZERCIgc3R5bGU9InN0cm9rZTojMTgxODE4O3N0cm9rZS13aWR0aDowLjU7Ii8+PHRleHQgZmlsbD0iIzAwMDAwMCIgZm9udC1mYW1pbHk9InNhbnMtc2VyaWYiIGZvbnQtc2l6ZT0iMTMiIGxlbmd0aEFkanVzdD0ic3BhY2luZyIgdGV4dExlbmd0aD0iMjQwLjUiIHg9IjExOTciIHk9Ijk0OS43MTA5Ij5HJiM3OTE3O2kgZW1haWwvU01TIHgmIzIyNTtjIG5oJiM3ODUzO24gY2hvIGtoJiMyMjU7Y2ggaCYjMjI0O25nPC90ZXh0PjxnIGNsYXNzPSJtZXNzYWdlIiBkYXRhLXBhcnRpY2lwYW50LTE9Ik5vdGlTZXJ2aWNlIiBkYXRhLXBhcnRpY2lwYW50LTI9IkJTZXJ2aWNlIj48cG9seWdvbiBmaWxsPSIjMTgxODE4IiBwb2ludHM9IjY2My41LDk3Ny4yNSw2NTMuNSw5ODEuMjUsNjYzLjUsOTg1LjI1LDY1OS41LDk4MS4yNSIgc3R5bGU9InN0cm9rZTojMTgxODE4O3N0cm9rZS13aWR0aDoxOyIvPjxsaW5lIHN0eWxlPSJzdHJva2U6IzE4MTgxODtzdHJva2Utd2lkdGg6MTtzdHJva2UtZGFzaGFycmF5OjIuMCwyLjA7IiB4MT0iNjU3LjUiIHgyPSIxMTgwLjUiIHkxPSI5ODEuMjUiIHkyPSI5ODEuMjUiLz48dGV4dCBmaWxsPSIjMDAwMDAwIiBmb250LWZhbWlseT0ic2Fucy1zZXJpZiIgZm9udC1zaXplPSIxMyIgZm9udC13ZWlnaHQ9ImJvbGQiIGxlbmd0aEFkanVzdD0ic3BhY2luZyIgdGV4dExlbmd0aD0iMjYiIHg9IjY2OS41IiB5PSI5NzcuNjI1Ij5bMjNdPC90ZXh0Pjx0ZXh0IGZpbGw9IiMwMDAwMDAiIGZvbnQtZmFtaWx5PSJzYW5zLXNlcmlmIiBmb250LXNpemU9IjEzIiBsZW5ndGhBZGp1c3Q9InNwYWNpbmciIHRleHRMZW5ndGg9IjYuNSIgeD0iNjk5LjUiIHk9Ijk3Ny42MjUiPiYjMTYwOzwvdGV4dD48L2c+PGcgY2xhc3M9Im1lc3NhZ2UiIGRhdGEtcGFydGljaXBhbnQtMT0iUFNlcnZpY2UiIGRhdGEtcGFydGljaXBhbnQtMj0iUENvbnRyb2xsZXIiPjxwb2x5Z29uIGZpbGw9IiMxODE4MTgiIHBvaW50cz0iMTg3MCwxMDA1LjE2NDEsMTg4MCwxMDA5LjE2NDEsMTg3MCwxMDEzLjE2NDEsMTg3NCwxMDA5LjE2NDEiIHN0eWxlPSJzdHJva2U6IzE4MTgxODtzdHJva2Utd2lkdGg6MTsiLz48bGluZSBzdHlsZT0ic3Ryb2tlOiMxODE4MTg7c3Ryb2tlLXdpZHRoOjE7c3Ryb2tlLWRhc2hhcnJheToyLjAsMi4wOyIgeDE9IjEwMzUiIHgyPSIxODc2IiB5MT0iMTAwOS4xNjQxIiB5Mj0iMTAwOS4xNjQxIi8+PHRleHQgZmlsbD0iIzAwMDAwMCIgZm9udC1mYW1pbHk9InNhbnMtc2VyaWYiIGZvbnQtc2l6ZT0iMTMiIGZvbnQtd2VpZ2h0PSJib2xkIiBsZW5ndGhBZGp1c3Q9InNwYWNpbmciIHRleHRMZW5ndGg9IjI2IiB4PSIxMDQyIiB5PSIxMDA1LjUzOTEiPlsyNF08L3RleHQ+PHRleHQgZmlsbD0iIzAwMDAwMCIgZm9udC1mYW1pbHk9InNhbnMtc2VyaWYiIGZvbnQtc2l6ZT0iMTMiIGxlbmd0aEFkanVzdD0ic3BhY2luZyIgdGV4dExlbmd0aD0iNi41IiB4PSIxMDcyIiB5PSIxMDA1LjUzOTEiPiYjMTYwOzwvdGV4dD48L2c+PGcgY2xhc3M9Im1lc3NhZ2UiIGRhdGEtcGFydGljaXBhbnQtMT0iUENvbnRyb2xsZXIiIGRhdGEtcGFydGljaXBhbnQtMj0iUGF5bWVudEdhdGV3YXkiPjxwb2x5Z29uIGZpbGw9IiMxODE4MTgiIHBvaW50cz0iMTQ1NCwxMDMzLjA3ODEsMTQ0NCwxMDM3LjA3ODEsMTQ1NCwxMDQxLjA3ODEsMTQ1MCwxMDM3LjA3ODEiIHN0eWxlPSJzdHJva2U6IzE4MTgxODtzdHJva2Utd2lkdGg6MTsiLz48bGluZSBzdHlsZT0ic3Ryb2tlOiMxODE4MTg7c3Ryb2tlLXdpZHRoOjE7c3Ryb2tlLWRhc2hhcnJheToyLjAsMi4wOyIgeDE9IjE0NDgiIHgyPSIxODg2IiB5MT0iMTAzNy4wNzgxIiB5Mj0iMTAzNy4wNzgxIi8+PHRleHQgZmlsbD0iIzAwMDAwMCIgZm9udC1mYW1pbHk9InNhbnMtc2VyaWYiIGZvbnQtc2l6ZT0iMTMiIGZvbnQtd2VpZ2h0PSJib2xkIiBsZW5ndGhBZGp1c3Q9InNwYWNpbmciIHRleHRMZW5ndGg9IjI2IiB4PSIxNDYwIiB5PSIxMDMzLjQ1MzEiPlsyNV08L3RleHQ+PHRleHQgZmlsbD0iIzAwMDAwMCIgZm9udC1mYW1pbHk9InNhbnMtc2VyaWYiIGZvbnQtc2l6ZT0iMTMiIGxlbmd0aEFkanVzdD0ic3BhY2luZyIgdGV4dExlbmd0aD0iMjE0LjUiIHg9IjE0OTAiIHk9IjEwMzMuNDUzMSI+MjAwIE9LIChQaCYjNzg0MztuIGgmIzc4OTE7aSAmIzI3MzsmIzIyNzsgbmgmIzc4NTM7biB3ZWJob29rKTwvdGV4dD48L2c+PCEtLVNSQz1bYkxUalFuajc0RnYtbHM5R2VQNFdWV2lxNUQ0Nmg5RGJjX1g1SDdSUnFGUjNRaE5JUk50UUtxdnhJYXBmYl9mM0FRS0c0cmU4ZlF0VDQ0bzJKUHN3S0FnWnZDQ1BfdV96OXZzekVyang5eWF1MWJsUWt2ZFBQc1FWVU1QejJuZU5YdDItaHk5ZGkxTWV1UDQwZ1M4dGlFOTUxbTlpSHVOVjJtVGNPQmxGQUVhcEE5bV9MU0RfOTNJWUZxSjFrV0xyWHFVbDFKSkx5OE0weXdWSDdaSEtVQm04UW9oeVVWS3NxRVdDZzFnLTM0M3dxUDMyODNlMHdhSDNhNHZxR1h0eXBhNW9ETm1oQktqb3dSOGZTQU8xRzBHcENwRFducml1cUo1WVZIelhnRjA3XzJPd3BsYWhXWFdFQU1tdmM4eTNGSVVFWUp1TTJRR2RXY3dKLUwzdWc3ZGx5X2FsQ0hvWHFpRHJFSktWd0VHQUdGZ21waElicklFLXY5SnRZOTFlTFY2eTdJdXdqWVVheHhha3lzRkpvY1d6c1J4MV8wNmRCMzVFNXBkQjZjVGtveEloSlJRaGF6cWs0ekFxaDQtc3RGMGFSdERBOUZVNFFRd1ZKX1FlNGFjUU1GQk9oNWd2Z2lzQTJoXzN5ckZYbGtaVzl5NHdJSXl3SkVnSzBiZWNhWnFja3ZSTG51R25CRWIyZHBxQWNBMWlLT1VmVTd3Qi1SUmRPaUp0RmJad1M2N0hkYzFRNy02dmNTQ1FSLUVsTzFkaElrdGttanI1d3Y4aDVKTnlLc2dBM095MlMwRGE2Z1ExTEU2T0xXeTZBZG1QcXlGZy01eEdXeE5LdUJ3M0I3OTBxcThsTEZXeDRiU0QzcHI4LVRYN0ZiZU11NHoyNVBZdlBwQVgzMC1acnU3azFUbkxSdnd3R0I2LXNUWTJrTVAyWk51ZjNlNmJ2V0NpT09QQnlIbFpHUm4zVWRIYmUzdjNYdkhYbkpIU0xOaHZXOVRkaFB5QTN2X3VsRUQ4eURmNmg0bzlkZ1ptMURwZUZ0MnozZ1ZQSWdNT0thU0RnM08ydjMyd2lwV1d0MkxEeGRBdk1zbmhLZy1zUmNGN1RyYUVMeXQ0TFJpQWM0Y25BRnMwYlVCRW53Ui0yd04xWnFhTy14Sk9VQW1uVERMQTZSUllLcWlCMVNNLTkzQmVWcm9lQnNyS0xwVU0ycGJTbzdremhiUG9NRDgyQm1iS2hMcWVka3o3QnkyekUwckFVSjBPTzBuNl9JZUM1cm5vRDRsUmZmVzljdURJcHdITEQtRGJjWXYzak9JWjdLdXlRQTRnOGVNRFppdDVweFBrbDRkY0tMbzI0VlBVeWRCUlRfQ3Z2cUtXWXBUSm5zazJKM2Q1VjV6elZOYU1jYmNaU0YxREZjMGI2ejFpOThvUFQ2cVB4aW1sVzF0dEtXa0FqWEZpZ2QxRlc3RG5naTlWYTItd0FUdmd2ZjZpLThzVGt6Y3ZKQkdpUXRQczVadzkzWlpFZTZZOHBLLTJDY25xVERuVkVSSVlWeEZuejgzSzR1WDZWLWlObFh3b29RUEtYS1Q0X19xZnZ1NFJ2NUtoOHpNVndKYWVTMDJVMjFvNzh4X1lmd3BmTzBkZFJFQXdKSzl0SWpSNG15VXBELWstWkJoMERLbURpMWFYb3dSMkpwS2tGUHAtdEVEYW1wb195cmZOcHNoVFk3Y3VKeWpiWk8xSXJrLXQwX1VvVXo4RHpFMndTVXplSVMzaG1xYWxBT3N5SjdrYTM4cmpzcnZnREF2TlhoNnNvMlczREpRT2dYMGNBYUZORlQ3Y1ZaU2R4QWtqUVJlLU1WRVl1LXdMdjRjN1VRRVVVSVV2c19CaTFDd3E3OThIUXJtMUdPTV93TmxYam1fWmdQaE9oQ0pTcUJVeXZ1WWRleThWVExUU2Q1dVNubDFLLThnY0Q3XzBLUjZnTmZUbTBQbERobllMRThlRWU4a1VTWklQMTJ1dnRhNzN2d2NSRUttZzR5a1FKc1dzaE5FblRFcmFON3VkaDV5OGRVQ1VQWGdUd0tJWkNueFZXQk5SNnVlVl82UDNUT29aT3pGQnRqb2VoSnZPTndlTUlrRmtuWE1sWjVTYnFIaFRNdE5BeVBNbWMyejhaYl9jRE42eUc5YVQ0YzVXTTBUdGhoN1VXMlU2eGIzN1dudFpBWE43Q2htcGpDa0pwQ0dtTFRwN1BlcWZBelVFYzdmazhrSWR3ZnR2VVRZeVpzQmNuRl9pdTFhLXVuMnRUdmZTSGpSQ1JSQVp1N3kwXS0tPjwvZz48L3N2Zz4=;" vertex="1" parent="1">
            <mxGeometry x="-1662" y="-651" width="1948" height="1141" as="geometry" />
          </mxCell>
        </UserObject>
      </root>
    </mxGraphModel>
  </diagram>
</mxfile>
